<svg width="60" height="60" viewBox="0 0 60 60" fill="none" xmlns="http://www.w3.org/2000/svg">
<rect width="60" height="60" fill="#F2F2F2"/>
<g clip-path="url(#clip0_0_1)">
<rect width="1440" height="11988" transform="translate(-128 -3992)" fill="white"/>
<circle cx="30" cy="30" r="30" fill="#F0F0F0"/>
<path d="M28.6957 30H60C60 27.2922 59.639 24.6691 58.9665 22.1738H28.6957V30Z" fill="#D80027"/>
<path d="M28.6957 14.3476H55.5968C53.7603 11.3509 51.4122 8.70211 48.6745 6.52148H28.6957L28.6957 14.3476Z" fill="#D80027"/>
<path d="M30 59.9997C37.0604 59.9997 43.5499 57.5594 48.6745 53.478H11.3254C16.45 57.5594 22.9395 59.9997 30 59.9997Z" fill="#D80027"/>
<path d="M4.40317 45.6518H55.5968C57.0711 43.2461 58.2145 40.6164 58.9665 37.8257H1.03345C1.78544 40.6164 2.92884 43.2461 4.40317 45.6518Z" fill="#D80027"/>
<path fill-rule="evenodd" clip-rule="evenodd" d="M16.6304 4.68492H13.8966C18.549 1.71914 24.0736 0 30 0V30H0C0 28.7331 0.0794531 27.4848 0.231914 26.2593L1.75512 25.1525L4.29797 27L3.3266 24.0107L5.86957 22.1632H2.72637L1.87477 19.542C2.16949 18.7492 2.49738 17.9726 2.85586 17.2131L4.29797 18.2609L3.525 15.8818C3.7568 15.4481 3.99867 15.0207 4.25086 14.6L5.86957 13.4241H4.99359C6.61078 10.9894 8.5732 8.8043 10.8122 6.93926L9.97313 9.52172L12.516 7.67426L15.0588 9.52172L14.0875 6.53238L16.6304 4.68492ZM12.516 25.1525L15.0588 27L14.0875 24.0107L16.6304 22.1632H13.4872L12.516 19.1739L11.5447 22.1632H8.40152L10.9445 24.0107L9.97313 27L12.516 25.1525ZM14.0875 15.2715L15.0588 18.2609L12.516 16.4134L9.97313 18.2609L10.9445 15.2715L8.40152 13.4241H11.5447L12.516 10.4347L13.4872 13.4241H16.6304L14.0875 15.2715ZM23.2768 25.1525L25.8197 27L24.8483 24.0107L27.3913 22.1632H24.2481L23.2768 19.1739L22.3056 22.1632H19.1624L21.7054 24.0107L20.734 27L23.2768 25.1525ZM24.8483 15.2715L25.8197 18.2609L23.2768 16.4134L20.734 18.2609L21.7054 15.2715L19.1624 13.4241H22.3056L23.2768 10.4347L24.2481 13.4241H27.3913L24.8483 15.2715ZM25.8197 9.52172L24.8483 6.53238L27.3913 4.68492H24.2481L23.2768 1.69559L22.3056 4.68492H19.1624L21.7054 6.53238L20.734 9.52172L23.2768 7.67426L25.8197 9.52172Z" fill="#0052B4"/>
</g>
<defs>
<clipPath id="clip0_0_1">
<rect width="1440" height="11988" fill="white" transform="translate(-128 -3992)"/>
</clipPath>
</defs>
</svg>
