<svg width="90" height="112" viewBox="0 0 90 112" fill="none" xmlns="http://www.w3.org/2000/svg">
<g id="Download app">
<g id="Group 16">
<g id="Group 15">
<g id="Group 3">
<mask id="mask0_0_251" style="mask-type:alpha" maskUnits="userSpaceOnUse" x="0" y="6" width="62" height="106">
<path id="Clip 2" fill-rule="evenodd" clip-rule="evenodd" d="M0 6.78809H61.6667V112H0V6.78809Z" fill="white"/>
</mask>
<g mask="url(#mask0_0_251)">
<path id="Fill 1" fill-rule="evenodd" clip-rule="evenodd" d="M15.8984 112C11.6564 112 7.6658 110.31 4.66178 107.237C1.65724 104.164 0.00236442 100.077 -0.000244141 95.7249V23.0741C-0.000244141 14.0942 7.1373 6.78809 15.9094 6.78809H23.9813C25.873 6.78809 27.4074 8.35879 27.4074 10.2948C27.4074 12.2313 25.873 13.802 23.9813 13.802H15.9094C10.9155 13.802 6.85193 17.9619 6.85193 23.0741V95.7206C6.85193 98.1955 7.79518 100.525 9.50588 102.274C11.2145 104.023 13.485 104.986 15.9005 104.986H15.9073H45.7571C50.7509 104.986 54.8145 100.831 54.8145 95.7206V73.4226C54.8145 71.4861 56.3494 69.9154 58.2406 69.9154C60.1318 69.9154 61.6667 71.4861 61.6667 73.4226V95.7206C61.6667 104.698 54.5338 112 45.7612 112H15.9094H15.8984Z" fill="black"/>
</g>
</g>
<g id="Group 6">
<mask id="mask1_0_251" style="mask-type:alpha" maskUnits="userSpaceOnUse" x="0" y="84" width="62" height="8">
<path id="Clip 5" fill-rule="evenodd" clip-rule="evenodd" d="M0 84.8486H61.6667V91.6365H0V84.8486Z" fill="white"/>
</mask>
<g mask="url(#mask1_0_251)">
<path id="Fill 4" fill-rule="evenodd" clip-rule="evenodd" d="M58.2405 91.6365H3.42584C1.53463 91.6365 -0.000244141 90.1164 -0.000244141 88.2423C-0.000244141 86.3687 1.53463 84.8486 3.42584 84.8486H58.2405C60.1318 84.8486 61.6666 86.3687 61.6666 88.2423C61.6666 90.1164 60.1318 91.6365 58.2405 91.6365Z" fill="black"/>
</g>
</g>
<path id="Fill 7" fill-rule="evenodd" clip-rule="evenodd" d="M59.1666 6.97625C45.9422 6.97625 35.1849 17.9291 35.1849 31.3939C35.1849 44.8583 45.9422 55.8116 59.1666 55.8116C72.3884 55.8116 83.1482 44.8583 83.1482 31.3939C83.1482 17.9291 72.3884 6.97625 59.1666 6.97625ZM28.3333 31.3939C28.3333 14.0821 42.1639 0 59.1666 0C76.1667 0 89.9999 14.0821 89.9999 31.3939C89.9999 48.7052 76.1667 62.7879 59.1666 62.7879C42.1639 62.7879 28.3333 48.7052 28.3333 31.3939Z" fill="black"/>
<path id="Fill 9" fill-rule="evenodd" clip-rule="evenodd" d="M58.3333 44.1209C56.4933 44.1209 55 42.8289 55 41.236V18.1574C55 16.5649 56.4933 15.2725 58.3333 15.2725C60.1733 15.2725 61.6667 16.5649 61.6667 18.1574V41.236C61.6667 42.8289 60.1733 44.1209 58.3333 44.1209Z" fill="black"/>
<path id="Fill 11" fill-rule="evenodd" clip-rule="evenodd" d="M57.9999 50.9089C57.0596 50.9089 56.1238 50.5444 55.4074 49.815L44.4074 38.6152C42.9752 37.1569 42.9752 34.7947 44.4074 33.3359C45.8396 31.8776 48.1602 31.8776 49.5925 33.3359L60.5924 44.5357C62.0246 45.9946 62.0246 48.3568 60.5924 49.815C59.876 50.5444 58.9402 50.9089 57.9999 50.9089Z" fill="black"/>
<path id="Fill 13" fill-rule="evenodd" clip-rule="evenodd" d="M56.0742 49.815C54.6419 48.3568 54.6419 45.9946 56.0742 44.5357L67.0741 33.3359C68.5063 31.8776 70.8269 31.8776 72.2592 33.3359C73.6914 34.7947 73.6914 37.1569 72.2592 38.6152L61.2592 49.815C60.5428 50.5444 59.607 50.9089 58.6667 50.9089C57.7264 50.9089 56.7906 50.5444 56.0742 49.815Z" fill="black"/>
</g>
</g>
</g>
</svg>
