<svg width="111" height="104" viewBox="0 0 111 104" fill="none" xmlns="http://www.w3.org/2000/svg">
<g id="Financial inst">
<path id="Path" d="M57.5011 25.7495H57.2511L56.9864 25.754C52.9388 25.8897 49.4249 29.1276 48.1365 33.7455L48.106 33.8595L46.7754 33.8603C45.9548 33.9874 45.3796 34.6645 45.3796 35.4593L45.3863 35.6069C45.4523 36.3366 46.0036 36.9391 46.7362 37.0553L47.667 37.0565L47.6673 37.4912L47.6504 37.9403C47.6476 38.0912 47.6477 38.2433 47.6505 38.3958L47.657 38.5895L46.7754 38.5902C45.9635 38.743 45.4118 39.4156 45.4118 40.1976L45.4181 40.3428C45.4816 41.0616 46.0113 41.6614 46.7278 41.8003L48.247 41.8035L48.1914 41.6286C49.5923 46.1712 53.1441 49.2495 57.1849 49.2495C60.0166 49.14 62.6197 47.6903 64.2102 45.3425C64.6615 44.6878 64.6615 43.8181 64.2091 43.1618C63.9789 42.8413 63.614 42.6537 63.2254 42.6537C62.8869 42.6537 62.5646 42.7962 62.336 43.0453L62.2536 43.1459C61.1512 44.9404 59.2446 46.0265 57.1819 46.0515L56.9157 46.0336C54.4416 45.8181 52.272 44.2631 51.2499 41.9859L51.179 41.8215L57.7145 41.8216C58.5264 41.6688 59.0781 40.9962 59.0781 40.2142L59.0717 40.069C59.0083 39.3502 58.4786 38.7504 57.7621 38.6115L50.404 38.6065L50.3987 38.5104C50.3864 38.1825 50.3926 37.8541 50.4173 37.5267L50.417 37.0745L57.8303 37.075C58.651 36.948 59.2261 36.2708 59.2261 35.476L59.2194 35.3284C59.1534 34.5987 58.6021 33.9963 57.8695 33.8801L50.966 33.8765L51.0309 33.6811C51.9697 31.0055 54.4178 29.1309 57.2658 28.9638C59.3117 28.9862 61.2194 30.0729 62.3005 31.8424C62.546 32.17 62.9077 32.3507 63.2916 32.3507C63.6756 32.3507 64.0373 32.17 64.269 31.8626C64.6981 31.2485 64.7348 30.4517 64.3726 29.8097L64.281 29.6636L64.1059 29.4157C62.555 27.2973 60.1619 25.9761 57.5607 25.7984L57.501 25.7945L57.5011 25.7495Z" fill="white"/>
<path id="Path_2" fill-rule="evenodd" clip-rule="evenodd" d="M44.5602 3.4291C46.0882 1.0871 48.5606 0.0446254 51.6789 0.000965871L52.0038 0C53.3011 0.0102006 54.5056 0.145286 55.9898 0.440855L56.6441 0.577458L57.3392 0.734334L58.0816 0.912106L58.8779 1.1114L59.7344 1.33283L59.9001 1.38398C61.3847 1.91381 62.9977 2.07385 64.5736 1.84678L64.4319 1.86353L64.692 1.78827C66.1097 1.39432 67.2358 1.42535 68.1583 2.35544L68.2956 2.50213C68.8596 3.14055 69.1613 3.81072 68.935 4.74709C68.846 5.11527 68.6928 5.40316 68.4836 5.69071C68.4317 5.76211 68.3811 5.82748 68.3242 5.89703L68.0847 6.18032L67.9189 6.39896L67.5108 6.977L66.9338 7.82856L64.2024 11.942L63.0711 13.613L62.7399 14.0949L62.2812 14.7515L61.864 15.3324L61.6066 15.6798L61.3641 15.9968L61.135 16.2845L60.918 16.5442L60.7116 16.7773L60.5144 16.9849L60.325 17.1682L60.142 17.3287C60.1119 17.3536 60.0821 17.3776 60.0524 17.4007L59.8763 17.5291C59.5564 17.7459 59.2508 17.8629 58.92 17.9148L58.7368 17.9369L58.5472 17.9473L54.5293 17.9995L54.3392 17.9955L54.157 17.9827L53.9815 17.9597C53.8664 17.9406 53.7548 17.914 53.6447 17.878L53.4807 17.8168L53.3176 17.7402C53.2089 17.6838 53.0999 17.6163 52.9888 17.5359L52.8202 17.4057C52.7633 17.3589 52.7057 17.3087 52.647 17.2549L52.4678 17.0823L52.2811 16.8867L52.0855 16.6667L51.8797 16.421C51.8445 16.3778 51.8087 16.3335 51.7725 16.2881L51.4316 15.8474L51.1865 15.517L50.7885 14.9631L50.0328 13.874L49.5162 13.1138L46.0779 7.98996L45.5385 7.21231L45.2913 6.88548L45.1649 6.73953L45.0384 6.67277C44.9285 6.60881 44.8113 6.52797 44.6978 6.42945L44.586 6.32502C43.8473 5.58221 43.8717 4.73451 44.1899 4.04691L44.2576 3.91778L44.341 3.77608L44.5602 3.4291ZM58.9777 5.2941L58.6559 5.18453L57.9341 5.00049L57.1524 4.80928L56.4067 4.63729L55.6963 4.48484C55.3497 4.41354 55.0161 4.34967 54.695 4.29341L54.0693 4.19106L53.4762 4.10926C51.2638 3.83551 49.7514 4.02139 48.7417 4.7417L48.7129 4.76253L48.8024 4.88844L49.4012 5.75948L52.0661 9.73901L52.6996 10.6761L53.2638 11.4959L53.6055 11.9826L54.0725 12.6306L54.4919 13.1896L54.7662 13.5386L55.0073 13.8297L55.1489 13.9915L57.7819 13.9565L57.9356 13.7854L58.176 13.4971L58.4494 13.1518C58.4979 13.0893 58.5473 13.0249 58.5977 12.9586L58.9123 12.5381L59.2519 12.0709L59.6175 11.556L60.0102 10.9921L60.4312 10.3779L61.2598 9.14781L63.3809 5.94453L62.8667 5.94374C61.5463 5.91458 60.2345 5.69656 58.9777 5.2941Z" fill="white"/>
<path id="Path_3" fill-rule="evenodd" clip-rule="evenodd" d="M49.7406 12.6924L49.9853 12.5522C53.8341 10.4245 58.5235 10.484 62.3522 12.7459C73.574 19.6185 81 32.355 81 41.1803C81 54.4846 71.3613 60.9995 56 60.9995C40.7115 60.9995 31 54.3315 31 41.0021C31 31.6005 38.273 18.8966 49.7406 12.6924ZM77 41.1803C77 33.774 70.3193 22.3158 60.2905 16.1735C57.6406 14.6082 54.3594 14.6082 51.7095 16.1735L51.2112 16.4495C41.3083 22.0261 35 33.1568 35 41.0021C35 51.7329 42.6705 56.9995 56 56.9995C58.0404 56.9995 59.9461 56.8807 61.7108 56.6416L62.4585 56.5317C71.8192 55.0467 77 50.0094 77 41.1803Z" fill="white"/>
<path id="Path_4" d="M109 28.9995C110.054 28.9995 110.918 29.8154 110.995 30.8503L111 30.9995L111 64.7474C111.011 68.616 109.447 72.3252 106.66 75.0413L91.7528 89.5473L91.4869 89.8168L91.3942 89.9192L91.2767 90.0696L91.2292 90.1405C91.2217 90.1529 91.2145 90.1656 91.2075 90.1788L91.1679 90.264C91.1617 90.2794 91.1558 90.2954 91.15 90.3121L91.1178 90.4223L91.0901 90.5551C91.0859 90.5793 91.0818 90.6047 91.0779 90.6314L91.0566 90.8069L91.0318 91.1362L91.0147 91.5591L91.0025 92.2961L91 92.9995C91 94.1041 90.1046 94.9995 89 94.9995C87.8954 94.9995 87 94.1041 87 92.9995L87.0052 92.1005L87.0157 91.5703L87.0334 91.0898L87.0594 90.6542C87.0645 90.5851 87.07 90.5176 87.0759 90.4517L87.1168 90.0743C87.2253 89.2337 87.4277 88.6604 87.7958 88.0768L87.9639 87.8253L88.2846 87.3945L88.4416 87.2114L88.7384 86.9031L103.87 72.1757C105.801 70.2934 106.917 67.7556 106.996 65.0875L107 64.7533V33.2795L106.916 33.3043C103.728 34.2753 101.385 37.5443 101.966 42.8035L102.006 43.1348C102.044 43.4207 102.019 43.7107 101.935 43.985L101.877 44.1476L98.2861 53.0022C97.871 54.0258 96.7047 54.5191 95.6811 54.104C94.7062 53.7087 94.2123 52.632 94.5261 51.6461L94.5792 51.499L97.977 43.1165L97.9607 42.9548C97.1448 34.3819 102.492 29.1406 108.746 29.0023L109 28.9995Z" fill="white"/>
<path id="Path_5" d="M90.4109 53.0978C93.2917 50.3001 97.936 50.3001 100.819 53.0996C103.663 55.8684 103.726 60.3385 101.007 63.1837L100.818 63.3752L89.9102 73.9815C89.1183 74.7516 87.8521 74.7338 87.082 73.9419C86.3525 73.1917 86.33 72.0158 87.003 71.2393L87.1216 71.1138L98.0283 60.5083C99.3239 59.2468 99.3239 57.227 98.03 55.9673C96.7506 54.7247 94.6863 54.6787 93.3495 55.8285L93.1986 55.9665L87.3765 61.6278C86.6588 62.3257 85.8896 62.751 84.6123 63.184L84.1086 63.3472C84.0204 63.3747 83.9299 63.4023 83.8372 63.4301L83.252 63.6006L81.6247 64.0493L81.0841 64.2069L80.5989 64.359C79.5288 64.7086 78.8835 65.0268 78.4685 65.4138L78.3831 65.4978L70.8444 72.7409C68.8797 74.6514 68.0555 77.8912 68.0027 81.8507L68 82.2628V90.9995C68 92.1041 67.1046 92.9995 66 92.9995C64.9456 92.9995 64.0818 92.1837 64.0055 91.1488L64 90.9995V82.2628C64 77.272 64.9684 73.0713 67.8017 70.1289L68.0645 69.8648L75.5549 62.6702C76.4722 61.7151 77.5439 61.1433 79.2629 60.5832L79.8605 60.3964C79.9644 60.3652 80.0704 60.3339 80.1786 60.3024L81.8264 59.8458L82.326 59.7038L82.768 59.5714L83.1558 59.4474L83.4927 59.3305L83.7821 59.2196C84.1378 59.075 84.376 58.9429 84.5328 58.81L84.5879 58.7601L90.4109 53.0978Z" fill="white"/>
<path id="Path_6" d="M94 90.9995C95.0544 90.9995 95.9182 91.8154 95.9945 92.8502L96 92.9995V102C96 103.104 95.1046 104 94 104C92.9456 104 92.0818 103.184 92.0055 102.149L92 102V94.9995H62C60.9456 94.9995 60.0818 94.1836 60.0055 93.1488L60 92.9995C60 91.9451 60.8159 91.0813 61.8507 91.005L62 90.9995H94Z" fill="white"/>
<path id="Path_7" d="M2 28.9995C8.43784 28.9995 14.02 34.2612 13.1787 42.9613L13.161 43.1175L16.6108 51.4953C17.0113 52.4681 16.5885 53.5746 15.6649 54.041L15.5227 54.1061C14.5499 54.5065 13.4434 54.0837 12.977 53.1602L12.9119 53.018L9.26586 44.1609C9.13225 43.8363 9.08641 43.4823 9.13293 43.1344C9.8613 37.6879 7.44574 34.2977 4.12625 33.3049L4 33.2685L3.99999 64.769C3.99194 67.4361 5.04459 70.0023 6.93528 71.9377L7.17597 72.1763L21.5829 85.9805L22.0908 86.4879L22.3586 86.7634L22.5811 87.0021L22.768 87.2158L22.9291 87.4161C22.9544 87.449 22.9789 87.4818 23.003 87.5148L23.1435 87.7167L23.2126 87.8228C23.2967 87.9545 23.3719 88.0792 23.4391 88.2013L23.5634 88.4434C23.7728 88.8855 23.8837 89.3316 23.9411 89.996L23.9675 90.3814C23.9711 90.4496 23.9743 90.52 23.9772 90.5927L23.9906 91.0575L23.9991 91.8747L23.9989 92.9995C23.9989 94.1041 23.1034 94.9995 21.9989 94.9995C20.9445 94.9995 20.0807 94.1836 20.0044 93.1488L19.9989 92.9995L19.998 91.5914L19.9912 91.0583L19.9782 90.6662L19.9654 90.47L19.9491 90.3167L19.9288 90.1985C19.9213 90.164 19.9132 90.1341 19.9042 90.1074L19.8751 90.0356L19.841 89.9751L19.753 89.8519L19.6215 89.6959L19.4282 89.4877L18.9183 88.9714L4.40685 75.0628C1.67276 72.4378 0.0956924 68.8795 0.00415658 65.1494L0 64.763V30.9995C0 29.895 0.89543 28.9995 2 28.9995Z" fill="white"/>
<path id="Path_8" d="M10.1787 53.112C12.9965 50.358 17.5059 50.2968 20.3997 52.9292L20.5945 53.1129L26.4167 58.8102C26.5881 58.978 26.8792 59.1418 27.361 59.3277L27.6735 59.4421C27.7296 59.4617 27.7877 59.4816 27.848 59.5017L28.2355 59.6264L28.6773 59.7596L30.493 60.2664L31.1427 60.4565C33.1152 61.053 34.3006 61.6112 35.2456 62.5385L35.3929 62.688L42.9487 69.9939C45.8844 72.8668 46.9379 77.0257 46.9973 81.9949L47 82.4489V92.9995C47 94.1041 46.1046 94.9995 45 94.9995C43.9457 94.9995 43.0819 94.1836 43.0055 93.1488L43 92.9995V82.4489C43 78.4103 42.2401 75.0742 40.3583 73.0644L40.1596 72.8612L32.5558 65.5066C32.1877 65.1209 31.5401 64.7911 30.3967 64.417L29.9124 64.2648C29.8271 64.2389 29.7395 64.2128 29.6494 64.1864L27.7448 63.6548L27.1595 63.4832C26.9739 63.4271 26.7976 63.372 26.6298 63.3173L26.1504 63.1537C25.0863 62.7722 24.3894 62.383 23.7543 61.7976L23.619 61.6691L17.7978 55.9726C16.4702 54.6752 14.3021 54.6752 12.9763 55.9709C11.7228 57.1991 11.6764 59.1435 12.8362 60.424L12.9754 60.5687L23.8829 71.2424C24.6724 72.015 24.6861 73.2812 23.9136 74.0707C23.1817 74.8186 22.0067 74.8703 21.2138 74.2168L21.0853 74.1013L10.1769 63.4267C7.2744 60.5829 7.2744 55.9576 10.1787 53.112Z" fill="white"/>
<path id="Path_9" d="M49 90.9995C50.0544 90.9995 50.9182 91.8154 50.9945 92.8502L51 92.9995V102C51 103.104 50.1046 104 49 104C47.9456 104 47.0818 103.184 47.0055 102.149L47 102V94.9995H17C15.9456 94.9995 15.0818 94.1836 15.0055 93.1488L15 92.9995C15 91.9451 15.8159 91.0813 16.8507 91.005L17 90.9995H49Z" fill="white"/>
<path id="Path_10" d="M17 90.9995C18.0544 90.9995 18.9182 91.8154 18.9945 92.8502L19 92.9995V102C19 103.104 18.1046 104 17 104C15.9456 104 15.0818 103.184 15.0055 102.149L15 102V92.9995C15 91.8949 15.8954 90.9995 17 90.9995Z" fill="white"/>
<path id="Path_11" d="M62 90.9995C63.0544 90.9995 63.9182 91.8154 63.9945 92.8502L64 92.9995V102C64 103.104 63.1046 104 62 104C60.9456 104 60.0818 103.184 60.0055 102.149L60 102V92.9995C60 91.8949 60.8954 90.9995 62 90.9995Z" fill="white"/>
</g>
</svg>
