<svg width="91" height="110" viewBox="0 0 91 110" fill="none" xmlns="http://www.w3.org/2000/svg">
<g id="For people">
<path id="Path" fill-rule="evenodd" clip-rule="evenodd" d="M87.5261 25.9249L87.9209 26.3485C90.483 29.2234 89.8393 34.0536 86.6565 37.1369L79.4808 44.0397L79.331 44.1684C76.531 46.3108 72.564 45.8164 70.4175 43.1274L70.098 42.7688L69.9938 42.6714C67.5895 40.3364 67.3268 36.522 69.3849 33.8704L69.5478 33.6688L69.6676 33.54L76.7709 26.6353C80.0166 23.4898 84.8505 23.0381 87.5261 25.9249ZM85.3352 28.707L84.9634 28.3088L84.839 28.184C83.5955 27.0307 81.096 27.3177 79.2085 29.1469L72.188 35.9708L72.1083 36.0712C71.2016 37.2963 71.3209 39.031 72.3836 40.1121L72.5213 40.2438L72.6586 40.3816L73.0908 40.8703C74.1111 42.1466 75.9192 42.3719 77.2041 41.3887L77.14 41.4338L84.2256 34.6188C86.0879 32.8147 86.4881 30.2044 85.4444 28.8393L85.3352 28.707Z" fill="white"/>
<path id="Path_2" d="M68.8916 77.4236C69.5834 78.0191 69.6957 79.0377 69.1749 79.7662L68.445 80.6731L67.4991 81.8152L67.2305 82.1269C66.1172 83.3924 64.9157 84.5615 63.5259 85.6678C58.1255 89.9666 51.148 92.3324 42.196 91.8992L41.831 91.879L41.2071 92.4919L40.7841 92.915L40.0647 93.6553L39.1889 94.5909L37.0383 96.9345C36.3841 97.6459 35.2771 97.6924 34.5656 97.0383C33.8541 96.3842 33.8076 95.2771 34.4617 94.5656L36.7924 92.0274L37.7087 91.0551L38.2317 90.5185L38.8023 89.9476L39.4567 89.3067L39.9575 88.8226C40.3158 88.4777 40.804 88.3015 41.3 88.3381C49.9125 88.9736 56.3915 86.8734 61.3461 82.9295C62.411 82.0818 63.3522 81.1895 64.2302 80.2303L64.6854 79.7202L65.1982 79.1112L66.4236 77.6085C67.0541 76.8759 68.159 76.7932 68.8916 77.4236Z" fill="white"/>
<path id="Path_3" d="M72.1646 0C76.136 0 79.3684 3.16309 79.4961 7.11079L79.5 7.35345V27.75C79.5 28.7165 78.7165 29.5 77.75 29.5C76.8318 29.5 76.0788 28.7929 76.0058 27.8935L76 27.75V7.35345C76 5.29053 74.3873 3.60815 72.3618 3.50501L72.1646 3.5H38.3354C36.2846 3.5 34.6078 5.11792 34.505 7.15504L34.5 7.35345V10.4353C34.5 11.4018 33.7165 12.1853 32.75 12.1853C31.8318 12.1853 31.0788 11.4782 31.0058 10.5789L31 10.4353V7.35345C31 3.37471 34.1529 0.132047 38.0932 0.003932L38.3354 0H72.1646Z" fill="white"/>
<path id="Path_4" d="M77.5167 75.6211C78.2287 76.0446 78.4627 76.9651 78.0392 77.6771C76.9475 79.5128 75.904 80.0012 73.5691 80.0785L73.0485 80.0892L72.7724 80.0904H34.75C33.9216 80.0904 33.25 79.4188 33.25 78.5904C33.25 77.8107 33.8449 77.1699 34.6055 77.0973L34.75 77.0904L73.2092 77.0887L73.5854 77.082L73.9073 77.0681C74.7482 77.0163 75.0108 76.8504 75.3405 76.3389L75.4608 76.1437C75.8842 75.4316 76.8047 75.1977 77.5167 75.6211Z" fill="white"/>
<path id="Path_5" d="M76.75 62C77.7165 62 78.5 62.7835 78.5 63.75C78.5 64.6682 77.7929 65.4212 76.8935 65.4942L76.75 65.5H37.75C36.7835 65.5 36 64.7165 36 63.75C36 62.8318 36.7071 62.0788 37.6065 62.0058L37.75 62H76.75Z" fill="white"/>
<path id="Path_6" d="M77.75 8C78.7165 8 79.5 8.7835 79.5 9.75C79.5 10.6682 78.7929 11.4212 77.8935 11.4942L77.75 11.5H34.5V23.75C34.5 24.6682 33.7929 25.4212 32.8935 25.4942L32.75 25.5C31.8318 25.5 31.0788 24.7929 31.0058 23.8935L31 23.75V9.75C31 8.83183 31.7071 8.07881 32.6065 8.0058L32.75 8H77.75Z" fill="white"/>
<path id="Path_7" fill-rule="evenodd" clip-rule="evenodd" d="M72.9315 69.4036L77.6049 64.1818C79.9684 61.5423 84.0643 61.2594 86.784 63.5427L87.1494 63.8438C89.9283 66.11 90.2978 70.1558 87.9412 72.8966L83.2873 78.0738C81.4316 80.2837 77.8124 79.8141 75.1425 77.521L74.7579 77.1853C72.1536 74.9125 71.0427 71.5244 72.9315 69.4036ZM84.9303 66.5504L84.5335 66.2233C83.2585 65.1528 81.3132 65.2872 80.2127 66.5163L75.5423 71.7346C75.4789 71.8058 75.4531 72.0495 75.6027 72.5056C75.8211 73.1717 76.3428 73.923 77.0593 74.5483L77.4334 74.8749C78.7957 76.0449 80.261 76.235 80.6455 75.7787L85.3125 70.5861C86.3575 69.3704 86.1941 67.581 84.9303 66.5504Z" fill="white"/>
<path id="Path_8" d="M30.6298 22.0411C32.5493 21.8081 34.4493 22.5786 35.6185 24.0256L35.7667 24.2182C38.0633 27.1359 39.2154 30.7713 39.0087 34.4866C38.6601 39.344 37.7488 44.1444 36.2938 48.7949L36.02 49.6461L36.0533 49.6925C40.4881 56.0319 40.703 66.2781 36.3517 78.7775L36.1538 79.3386C35.8287 80.2488 34.8274 80.7232 33.9172 80.3981C33.007 80.0731 32.5326 79.0717 32.8577 78.1615C37.2447 65.877 36.9097 56.289 32.7043 51.0573C32.3275 50.5885 32.2178 49.959 32.414 49.3903C34.1043 44.4899 35.1473 39.397 35.5159 34.2643C35.6735 31.4294 34.787 28.6324 32.9811 26.3364C32.5443 25.7416 31.804 25.4243 31.0515 25.5156C30.3559 25.6 29.76 26.0203 29.4594 26.62L29.414 26.7201L27.8369 31.7628L24.8983 41.2406L24.8322 41.4458C24.6409 42.0322 24.4549 42.5877 24.2674 43.1317C23.8286 44.4051 23.3719 45.6438 22.8421 46.9936C22.2834 48.4198 21.9034 50.0916 21.6625 52.0508L21.561 52.9698L21.4866 53.7939L21.4275 54.6408L21.3906 55.3288L21.3384 56.6547L21.2512 59.7524L21.2181 60.6814L21.1642 61.7407L21.1313 62.2024L21.0936 62.624L21.0504 63.0095C21.0426 63.0709 21.0347 63.1311 21.0264 63.1899L20.9734 63.5287C20.964 63.5829 20.9542 63.636 20.9441 63.688L20.8798 63.989C20.8684 64.0374 20.8566 64.0849 20.8445 64.1317L20.7671 64.4038L20.6802 64.6615C20.6649 64.7035 20.6491 64.7451 20.6329 64.7863L20.5303 65.03C20.5123 65.0702 20.4938 65.1101 20.4748 65.15C20.4612 65.1786 20.4343 65.2225 20.3956 65.2799L20.2457 65.4903C20.2154 65.5314 20.1825 65.5755 20.1473 65.6221L19.7731 66.1068L19.1351 66.908L17.6762 68.6983L16.1767 70.515L15.6639 71.1581L15.4199 71.4684C14.9541 72.0637 14.5365 72.6156 14.1677 73.1253C13.601 73.9082 12.5069 74.0836 11.724 73.5169C10.941 72.9503 10.7657 71.8562 11.3323 71.0732L11.5758 70.74L12.0968 70.0452L12.6632 69.3118L13.1791 68.6589L13.7208 67.9853L14.2876 67.2906L15.0557 66.3616L16.8573 64.1966L17.2294 63.7319L17.3421 63.5839L17.3672 63.52L17.4174 63.3679L17.4635 63.191C17.4709 63.1593 17.4781 63.1265 17.4851 63.0924L17.5256 62.8737L17.5626 62.6243L17.5965 62.3416L17.6274 62.0235L17.6687 61.4746L17.6933 61.0575L17.7264 60.349L17.7734 58.9278L17.8416 56.4978L17.8846 55.3737L17.9217 54.631L17.9499 54.1682L17.9984 53.5021L18.0359 53.0647L18.1256 52.1688C18.3926 49.7102 18.8507 47.5869 19.5837 45.7159C20.0961 44.4105 20.5357 43.218 20.9584 41.9914L21.1393 41.4614L21.5321 40.276L25.5387 27.3719L26.106 25.5732L26.1519 25.4463C26.9058 23.587 28.6234 22.2847 30.6298 22.0411Z" fill="white"/>
<path id="Path_9" d="M9.90914 70.5113C10.5527 69.8691 11.5715 69.8319 12.2585 70.3995L12.3832 70.513L38.9879 97.1363C39.6312 97.78 39.6683 98.7999 39.0999 99.4871L38.9862 99.6119L29.5909 108.989C28.9068 109.671 27.7987 109.67 27.116 108.986C26.4734 108.342 26.4366 107.323 27.0048 106.636L27.1184 106.511L35.274 98.371L11.143 74.224L2.98621 82.3654C2.34236 83.008 1.32297 83.0448 0.636063 82.4766L0.511337 82.363C-0.131241 81.7191 -0.168067 80.6997 0.400158 80.0128L0.51379 79.8881L9.90914 70.5113Z" fill="white"/>
<path id="Path_10" d="M78.6123 52.2033C80.9615 49.5583 84.9363 49.2621 87.627 51.4801L88.2124 51.9878C90.8561 54.2891 91.2547 58.2661 89.1662 61.0536L89.009 61.2554L88.9168 61.3603L85.4211 65.0333C84.7547 65.7334 83.647 65.7608 82.9469 65.0944C82.288 64.4673 82.225 63.4492 82.7754 62.7479L82.8858 62.6203L86.32 59.0108L86.4084 58.8958C87.3157 57.623 87.1642 55.8515 86.0565 54.7594L85.913 54.6265L85.5034 54.2691C84.2948 53.1939 82.4959 53.2575 81.3832 54.3625L81.2531 54.5001L76.5864 59.98C76.256 60.3684 76.6619 61.796 77.8827 62.9395L78.0465 63.0869L79.6149 64.4138C80.3528 65.0381 80.4449 66.1423 79.8206 66.8801C79.231 67.577 78.2134 67.6979 77.4805 67.1833L77.3543 67.0858L75.7721 65.7471C73.2001 63.5247 72.124 60.0661 73.7876 57.8773L73.921 57.7115L78.6123 52.2033Z" fill="white"/>
<path id="Path_11" d="M78.6188 40.1869C80.9658 37.563 84.9303 37.2682 87.6186 39.4647L88.2083 39.9723C90.8567 42.2614 91.2565 46.223 89.1631 48.9975L89.063 49.1248L87.492 51.4415C86.9796 52.1969 85.9805 52.4249 85.1972 51.9908L85.0614 51.9073C84.306 51.3949 84.078 50.3958 84.5121 49.6125L84.5956 49.4767L86.2013 47.1096L86.2936 46.9857C87.3248 45.7219 87.2095 43.8744 86.061 42.7504L85.9182 42.6191L85.5087 42.2643C84.299 41.1958 82.4947 41.2592 81.3817 42.3562L81.2515 42.4928L76.5944 47.9228C76.2585 48.3207 76.6481 49.6858 77.8992 50.8572L78.0673 51.0088L78.1634 51.0989L78.579 51.5189C79.2588 52.2058 79.253 53.3139 78.5661 53.9937C77.9195 54.6336 76.9 54.6661 76.2155 54.0949L76.0912 53.9808L75.72 53.6058L75.576 53.476C73.1347 51.2328 72.1707 47.9688 73.7951 45.8218L73.9287 45.6547L78.6188 40.1869Z" fill="white"/>
<path id="Path_12" d="M59.75 69C60.7165 69 61.5 69.7835 61.5 70.75C61.5 71.6682 60.7929 72.4212 59.8935 72.4942L59.75 72.5H49.75C48.7835 72.5 48 71.7165 48 70.75C48 69.8318 48.7071 69.0788 49.6065 69.0058L49.75 69H59.75Z" fill="white"/>
<path id="Path_13" d="M54.7501 24C58.8956 24 62.662 26.354 64.3412 30.0215C64.7436 30.9002 64.3574 31.9388 63.4786 32.3411C62.5998 32.7435 61.5613 32.3573 61.1589 31.4785C60.0567 29.0712 57.5428 27.5 54.7501 27.5C51.9573 27.5 49.4434 29.0712 48.3412 31.4785C47.9389 32.3573 46.9003 32.7435 46.0215 32.3411C45.1428 31.9388 44.7566 30.9002 45.1589 30.0215C46.8381 26.354 50.6045 24 54.7501 24Z" fill="white"/>
<path id="Path_14" d="M54.7499 17C60.5611 17 65.9866 19.9214 69.2087 24.7832C69.7426 25.5889 69.5223 26.6748 68.7167 27.2087C67.9111 27.7427 66.8251 27.5224 66.2912 26.7168C63.7166 22.8319 59.3859 20.5 54.7499 20.5C50.114 20.5 45.7833 22.8319 43.2087 26.7168C42.6748 27.5224 41.5888 27.7427 40.7832 27.2087C39.9776 26.6748 39.7573 25.5889 40.2912 24.7832C43.5133 19.9214 48.9388 17 54.7499 17Z" fill="white"/>
<path id="Path_15" d="M57.1096 36C58.523 36 59.8829 36.5387 60.8932 37.5049C61.919 38.4858 62.5 39.8272 62.5 41.2313C62.5 42.1978 61.7165 42.9813 60.75 42.9813C59.7835 42.9813 59 42.1978 59 41.2313C59 40.7888 58.8139 40.3592 58.4743 40.0344C58.1587 39.7326 57.7349 39.5451 57.281 39.5071L57.1096 39.5H52.9994C52.1978 39.5 51.5788 40.0919 51.5788 40.7848C51.578 41.2777 51.8948 41.7361 52.4236 41.9561L52.5601 42.0061L59.0211 44.1839C61.0373 44.8138 62.4212 46.638 62.4217 48.7179C62.4217 50.0029 61.8902 51.23 60.9525 52.1267C60.0917 52.9499 58.9538 53.4328 57.7581 53.4935L57.501 53.5L53.3822 53.5C51.9534 53.4928 50.5824 52.9376 49.5717 51.9503C48.5457 50.948 47.9769 49.5836 48.0007 48.1645C48.0169 47.1981 48.8135 46.4279 49.7799 46.4441C50.6979 46.4595 51.4389 47.1792 51.4968 48.0796L51.5002 48.2232C51.4927 48.6735 51.6758 49.1129 52.0175 49.4466C52.3348 49.7566 52.7642 49.9507 53.2192 49.9918L53.3909 50H57.501C57.8941 50 58.2666 49.8524 58.5336 49.5972C58.7851 49.3566 58.9217 49.0413 58.9217 48.7184C58.9216 48.2316 58.6069 47.7794 58.0772 47.562L57.9403 47.5126L51.4722 45.3325C49.4554 44.6929 48.0756 42.8622 48.0788 40.7821C48.0788 38.1949 50.1805 36.1152 52.7816 36.0046L52.9994 36H57.1096Z" fill="white"/>
<path id="Path_16" d="M54.75 31C55.6682 31 56.4212 31.7071 56.4942 32.6065L56.5 32.75V37.75C56.5 38.7165 55.7165 39.5 54.75 39.5C53.8318 39.5 53.0788 38.7929 53.0058 37.8935L53 37.75V32.75C53 31.7835 53.7835 31 54.75 31Z" fill="white"/>
<path id="Path_17" d="M54.75 50C55.6682 50 56.4212 50.7071 56.4942 51.6065L56.5 51.75V56.75C56.5 57.7165 55.7165 58.5 54.75 58.5C53.8318 58.5 53.0788 57.7929 53.0058 56.8935L53 56.75V51.75C53 50.7835 53.7835 50 54.75 50Z" fill="white"/>
</g>
</svg>
