<svg width="52" height="45" viewBox="0 0 52 45" fill="none" xmlns="http://www.w3.org/2000/svg">
<g id="ID Card 2">
<g id="ID Card">
<g id="Group 3">
<mask id="mask0_0_266" style="mask-type:alpha" maskUnits="userSpaceOnUse" x="0" y="6" width="52" height="39">
<path id="Clip 2" fill-rule="evenodd" clip-rule="evenodd" d="M0 6.4043H51.234V44.83H0V6.4043Z" fill="white"/>
</mask>
<g mask="url(#mask0_0_266)">
<path id="Fill 1" fill-rule="evenodd" clip-rule="evenodd" d="M46.4312 44.83H4.80332C2.15486 44.83 0 42.6753 0 40.0269V11.2076C0 8.55915 2.15486 6.4043 4.80332 6.4043H20.8139C21.6983 6.4043 22.4151 7.1211 22.4151 8.0054C22.4151 8.88971 21.6983 9.60651 20.8139 9.60651H4.80332C3.92057 9.60651 3.20221 10.3246 3.20221 11.2076V40.0269C3.20221 40.9096 3.92057 41.628 4.80332 41.628H46.4312C47.314 41.628 48.0321 40.9096 48.0321 40.0269V11.2076C48.0321 10.3246 47.314 9.60651 46.4312 9.60651H30.4204C29.5361 9.60651 28.8195 8.88971 28.8195 8.0054C28.8195 7.1211 29.5361 6.4043 30.4204 6.4043H46.4312C49.0797 6.4043 51.2341 8.55915 51.2341 11.2076V40.0269C51.2341 42.6753 49.0797 44.83 46.4312 44.83Z" fill="black"/>
</g>
</g>
<g id="Group 6">
<mask id="mask1_0_266" style="mask-type:alpha" maskUnits="userSpaceOnUse" x="19" y="0" width="14" height="17">
<path id="Clip 5" fill-rule="evenodd" clip-rule="evenodd" d="M19.2129 0H32.0213V16.0108H19.2129V0Z" fill="white"/>
</mask>
<g mask="url(#mask1_0_266)">
<path id="Fill 4" fill-rule="evenodd" clip-rule="evenodd" d="M25.6171 3.20221C23.8514 3.20221 22.4149 4.63871 22.4149 6.4042V12.8086H28.8193V6.4042C28.8193 4.63871 27.3828 3.20221 25.6171 3.20221ZM28.8193 16.0108H22.4151C20.6494 16.0108 19.2129 14.5743 19.2129 12.8086V6.4042C19.2129 2.87299 22.0857 0 25.6171 0C29.1485 0 32.0213 2.87299 32.0213 6.4042V12.8086C32.0213 14.5743 30.585 16.0108 28.8193 16.0108Z" fill="black"/>
</g>
</g>
<path id="Fill 7" fill-rule="evenodd" clip-rule="evenodd" d="M17.6116 22.4151C15.4046 22.4151 13.6089 24.2107 13.6089 26.4179C13.6089 28.6248 15.4046 30.4204 17.6116 30.4204C19.8188 30.4204 21.6146 28.6248 21.6146 26.4179C21.6146 24.2107 19.8188 22.4151 17.6116 22.4151ZM17.6116 33.6226C13.6389 33.6226 10.4069 30.3906 10.4069 26.4179C10.4069 22.445 13.6389 19.2129 17.6116 19.2129C21.5845 19.2129 24.8166 22.445 24.8166 26.4179C24.8166 30.3906 21.5845 33.6226 17.6116 33.6226Z" fill="black"/>
<path id="Fill 9" fill-rule="evenodd" clip-rule="evenodd" d="M9.76729 41.6279H25.4565C24.7125 37.9784 21.4778 35.2237 17.6118 35.2237C13.7458 35.2237 10.511 37.9784 9.76729 41.6279ZM27.2183 44.8299H8.00528C7.12098 44.8299 6.40417 44.1131 6.40417 43.2288C6.40417 37.0491 11.4318 32.0215 17.6117 32.0215C23.7916 32.0215 28.8192 37.0491 28.8192 43.2288C28.8192 44.1131 28.1024 44.8299 27.2183 44.8299Z" fill="black"/>
<path id="Fill 11" fill-rule="evenodd" clip-rule="evenodd" d="M40.0268 25.6172H30.4203C29.536 25.6172 28.8195 24.9004 28.8195 24.0161C28.8195 23.1318 29.536 22.415 30.4203 22.415H40.0268C40.9111 22.415 41.6276 23.1318 41.6276 24.0161C41.6276 24.9004 40.9111 25.6172 40.0268 25.6172Z" fill="black"/>
<path id="Fill 13" fill-rule="evenodd" clip-rule="evenodd" d="M43.229 32.0215H30.4203C29.536 32.0215 28.8195 31.3047 28.8195 30.4204C28.8195 29.5361 29.536 28.8193 30.4203 28.8193H43.229C44.1133 28.8193 44.8299 29.5361 44.8299 30.4204C44.8299 31.3047 44.1133 32.0215 43.229 32.0215Z" fill="black"/>
</g>
</g>
</svg>
