<svg width="110" height="111" viewBox="0 0 110 111" fill="none" xmlns="http://www.w3.org/2000/svg">
<path fill-rule="evenodd" clip-rule="evenodd" d="M63.625 15.625L73.9548 15.625C83.1519 15.6537 90.6337 23.1685 90.75 32.5389V80.2507V81.2033C90.75 81.3901 90.7287 81.5623 90.6893 81.72C90.0068 89.8695 83.6314 95.2446 74.8658 95.3727L74.5446 95.375H16.9256C15.9764 95.375 15.1987 94.6452 15.1299 93.7195L15.125 93.586V56.3461V50.414V47.7788C15.125 46.7752 15.843 45.9529 16.7536 45.8802L16.885 45.875H57.365C58.337 45.875 59.125 46.7274 59.125 47.7788C59.125 48.7825 58.407 49.6048 57.4964 49.6775L57.365 49.6827H18.645V49.8812C18.685 50.0088 18.711 50.1424 18.7213 50.2805L18.7262 50.414V91.797H74.5446C81.9798 91.797 87.0077 87.383 87.1459 80.5412L87.1488 80.2507C87.1488 80.138 87.1593 80.0277 87.1794 79.9208C87.1658 79.7858 87.1503 79.6513 87.1329 79.5174C84.7627 84.9056 80.6306 88.3813 75.3029 88.497L75.0277 88.5H34.1895C33.2055 88.5 32.4078 87.69 32.4078 86.6908C32.4078 84.108 30.3866 82.0249 27.9067 82.0249C26.9674 82.0249 26.1979 81.2869 26.1299 80.3507L26.125 80.2157V62.4093C26.125 61.4101 26.9227 60.6001 27.9067 60.6001C30.3866 60.6001 32.4078 58.517 32.4078 55.9342C32.4078 54.9804 33.1346 54.199 34.0565 54.13L34.1895 54.125H61.875V17.4217C61.875 16.4294 62.6585 15.625 63.625 15.625ZM87.0064 30.1436C84.7444 26.9562 81.0024 25.25 76.3963 25.25C75.4159 25.25 74.601 25.9734 74.5266 26.9097C74.3615 28.9892 72.6419 30.6531 70.457 30.8413C69.4905 30.9246 68.75 31.7005 68.75 32.63V51.5708C68.75 52.4861 69.4664 53.2469 70.4006 53.3539L70.5422 53.365C72.7275 53.4575 74.4632 55.1417 74.5219 57.2196C74.5481 58.1459 75.3032 58.8927 76.2525 58.9617L76.3963 58.9669C77.3737 58.9669 79.8247 60.005 81.7973 61.4736C84.1296 63.2098 85.5231 65.2326 85.6196 67.232L85.625 67.4541C85.625 67.7741 85.692 68.0514 85.8081 68.2859C85.8043 68.5475 85.7973 68.807 85.7874 69.0644C82.7689 65.9601 78.6121 63.9967 73.9956 63.872L65.3752 63.8709V19.2183H73.9496L74.2293 19.2221C80.5778 19.3743 85.8326 24.0186 87.0064 30.1436ZM75.0277 84.8816C79.9609 84.8816 83.7377 80.5856 85.1774 73.9965C82.8227 70.1738 78.6869 67.593 73.9495 67.4647H65.7659C65.9186 68.034 66 68.6325 66 69.25C66 73.047 62.922 76.125 59.125 76.125C55.328 76.125 52.25 73.047 52.25 69.25C52.25 65.453 55.328 62.375 59.125 62.375C60.1028 62.375 61.0329 62.5791 61.875 62.9471V57.7434H35.7773L35.7658 57.7997C35.0966 60.7856 32.8559 63.1583 29.9816 63.9419L29.6884 64.0141V78.61L29.7264 78.6181C32.7227 79.3277 35.0769 81.7516 35.7658 84.8253L35.7773 84.8816H75.0277ZM77.917 28.9244L78.0334 28.938C82.7454 29.5151 85.6251 32.6905 85.6251 38.4877V59.9058L85.4876 59.7778C85.0544 59.3841 84.5905 59.0037 84.0987 58.6376L83.821 58.4347C82.0482 57.164 80.0238 56.1666 78.3253 55.6871L78.0688 55.6181L78.0502 55.5386C77.384 52.9172 75.2882 50.8295 72.5882 50.0741L72.5001 50.0507V34.0958L72.7169 34.0289C75.1631 33.2317 77.0844 31.372 77.885 29.0249L77.917 28.9244Z" fill="white"/>
</svg>
