<svg width="110" height="110" viewBox="0 0 110 110" fill="none" xmlns="http://www.w3.org/2000/svg">
<path fill-rule="evenodd" clip-rule="evenodd" d="M52.1923 12.7916C45.8382 11.41 39.2378 13.5171 34.8107 18.3357C31.1108 22.3628 29.3827 27.7896 29.9691 33.1559L27.5458 30.7682L27.4458 30.6777C26.8268 30.1634 25.8756 30.1658 25.2591 30.7036C24.6085 31.2713 24.5773 32.2206 25.1895 32.824L30.47 38.0279L30.5696 38.1181C31.2202 38.6591 32.2312 38.6248 32.836 38.0183L38.0702 32.7683L38.1606 32.6695C38.6707 32.0611 38.602 31.1813 37.9805 30.6486C37.3244 30.0862 36.301 30.1234 35.6945 30.7318L33.1513 33.2824C32.506 28.6499 33.9397 23.9195 37.13 20.447C40.8032 16.4489 46.2655 14.7051 51.5216 15.848C52.3695 16.0323 53.207 15.4976 53.3922 14.6536C53.5774 13.8096 53.0402 12.976 52.1923 12.7916ZM45.9643 42.0952C34.248 42.0952 24.75 51.5496 24.75 63.2121C24.75 74.8747 34.248 84.3291 45.9643 84.3291C57.6806 84.3291 67.1786 74.8747 67.1786 63.2121C67.1786 51.5496 57.6806 42.0952 45.9643 42.0952ZM45.9644 45.2236C55.945 45.2236 64.0359 53.2774 64.0359 63.2121C64.0359 73.1469 55.945 81.2007 45.9644 81.2007C35.9839 81.2007 27.893 73.1469 27.893 63.2121C27.893 53.2774 35.9839 45.2236 45.9644 45.2236ZM77.2394 71.6207C76.6075 71.0565 75.6253 71.0923 75.0379 71.7248L69.9532 77.1996L69.8654 77.3026C69.3698 77.937 69.4366 78.8545 70.0404 79.41L70.1438 79.4974C70.7812 79.9907 71.7028 79.9243 72.261 79.3233L74.8588 76.5253C75.5658 81.2203 74.1339 86.0329 70.8996 89.5525C67.2265 93.5496 61.7674 95.2936 56.5132 94.1533C55.6653 93.9693 54.828 94.5044 54.6431 95.3484C54.4583 96.1925 54.9958 97.0259 55.8438 97.21C62.1955 98.5884 68.7921 96.481 73.2186 91.664C76.8642 87.6968 78.5982 82.3708 78.0924 77.0805L80.1769 79.2853L80.274 79.3797C80.8753 79.9159 81.7994 79.9135 82.3982 79.3526C83.0303 78.7606 83.0606 77.7707 82.4658 77.1415L77.3362 71.7148L77.2394 71.6207ZM60.893 37.4025C60.893 26.1719 70.0392 17.0677 81.3216 17.0677C92.604 17.0677 101.75 26.1719 101.75 37.4025C101.75 48.6332 92.604 57.7374 81.3216 57.7374C70.0392 57.7374 60.893 48.6332 60.893 37.4025ZM98.6075 37.4025C98.6075 27.8997 90.8684 20.1961 81.3217 20.1961C71.7751 20.1961 64.036 27.8997 64.036 37.4025C64.036 46.9054 71.7751 54.6089 81.3217 54.6089C90.8684 54.6089 98.6075 46.9054 98.6075 37.4025ZM79.7685 26.3853C79.7685 25.5803 80.3737 24.9166 81.1522 24.8317L81.3215 24.8225C82.1799 24.8225 82.8746 25.5228 82.8746 26.3853L82.8741 26.994L83.1761 27.081C85.6061 27.8543 87.3239 30.0737 87.4585 32.6587L87.4669 32.9585C87.4669 33.821 86.7722 34.5213 85.9139 34.5213C85.0555 34.5213 84.3608 33.821 84.3616 32.9355C84.4376 31.8039 83.8819 30.7242 82.9214 30.1358C81.9619 29.5479 80.7578 29.5479 79.7982 30.1358C78.8377 30.7242 78.2821 31.8039 78.3588 32.9585L78.3636 33.1265C78.4366 34.3943 79.3655 35.2017 81.8618 36.0589L82.2328 36.1897C85.7564 37.4655 87.4669 39.0919 87.4669 42.1243C87.4652 44.8365 85.7039 47.2012 83.1751 47.99L82.8741 48.0741L82.8746 48.6973C82.8746 49.5023 82.2694 50.166 81.4909 50.2509L81.3215 50.26C80.4632 50.26 79.7685 49.5598 79.7685 48.6973L79.768 48.0728L79.4681 47.9877C77.0396 47.2203 75.3206 45.0054 75.1848 42.4235L75.1762 42.1241C75.1762 41.2616 75.8709 40.5613 76.7292 40.5613C77.5876 40.5613 78.2823 41.2616 78.2823 42.1256L78.2928 42.3935C78.3519 43.1036 78.6572 43.7733 79.1596 44.282C79.7242 44.8537 80.4912 45.175 81.2973 45.175C82.1065 45.1899 82.8876 44.8753 83.4642 44.3019C84.0413 43.728 84.3646 42.9434 84.3608 42.1241C84.3608 40.7648 83.4571 39.9522 80.7802 39.0233L80.4152 38.8929C77.0609 37.6593 75.1762 35.9494 75.1762 32.9578C75.1823 30.2447 76.9401 27.8789 79.467 27.0798L79.768 26.9926L79.7685 26.3853ZM95.3628 76.9109L95.3617 71.7269L100.469 71.7282C101.003 71.7895 101.56 71.5185 101.865 71.029C102.17 70.5404 102.17 69.9199 101.865 69.4313L101.755 69.2764C101.436 68.8857 100.94 68.6778 100.432 68.7342L95.4181 68.7308L95.4184 63.5773C95.4085 62.7496 94.7413 62.0863 93.9206 62.0863L93.7587 62.095C93.0139 62.1754 92.4321 62.8045 92.4229 63.5732L92.4219 68.7308L87.3162 68.7321C86.7825 68.6708 86.2254 68.9418 85.9203 69.4313C85.6158 69.9199 85.6158 70.5404 85.9203 71.029L86.031 71.1839C86.3494 71.5746 86.846 71.7824 87.3541 71.7261L92.3669 71.7269L92.3672 76.9109C92.3672 77.7417 93.0373 78.416 93.865 78.416C94.6927 78.416 95.3628 77.7417 95.3628 76.9109ZM45.7156 53.1731L46.049 53.1661L46.0791 53.196L46.4164 53.2149C48.82 53.3896 51.03 54.5316 52.484 56.3551L52.6963 56.6337L52.8054 56.8018C53.1161 57.3536 53.073 58.0268 52.6861 58.545C52.4771 58.8045 52.1532 58.9559 51.8104 58.9559C51.4677 58.9559 51.1438 58.8045 50.9246 58.5311C49.8825 56.9349 48.0407 55.953 46.0584 55.9328C43.1412 56.0931 40.6621 57.9902 39.9002 60.6403L39.9686 60.4203L46.6267 60.4228C47.2837 60.5203 47.7838 61.0232 47.8569 61.6404L47.8661 61.7969C47.8661 62.484 47.3384 63.0655 46.6014 63.173L39.4639 63.1716L39.4644 63.6245C39.4433 63.8855 39.4363 64.1474 39.4433 64.4089L39.4557 64.6429L46.5216 64.6457C47.1647 64.7624 47.6459 65.2639 47.7161 65.8722L47.725 66.0264C47.725 66.7027 47.2183 67.2807 46.4909 67.4099L40.1652 67.4094L40.185 67.4571C41.1251 69.5808 43.2363 71.0477 45.6653 71.2667L45.9839 71.2882C47.9767 71.2655 49.8174 70.2843 50.8779 68.6688L50.9818 68.5547C51.1852 68.363 51.4603 68.2552 51.7473 68.2552C52.0939 68.2552 52.4204 68.4124 52.6275 68.6822C53.0476 69.2524 53.0476 70.0106 52.6284 70.5797C51.1224 72.66 48.6601 73.9434 45.9858 74.0403C42.2034 74.0403 38.8673 71.3641 37.5118 67.3943L36.0265 67.3923C35.3834 67.2755 34.9022 66.7741 34.832 66.1657L34.8231 66.0115C34.8231 65.3352 35.3298 64.7573 36.0572 64.6281L36.9669 64.6278L36.9584 64.4024L36.9584 63.9967L36.9744 63.5958L36.9738 63.1579L36.0319 63.1563C35.3749 63.0587 34.8747 62.5558 34.8017 61.9386L34.7925 61.7821C34.7925 61.095 35.3202 60.5136 36.0572 60.406L37.3794 60.4051L37.4472 60.1746C38.6821 56.1499 41.9517 53.3309 45.7156 53.1731Z" fill="white"/>
</svg>
