<svg width="56" height="56" viewBox="0 0 56 56" fill="none" xmlns="http://www.w3.org/2000/svg">
<g id="Selfie 2">
<g id="Selfie">
<path id="Fill 1" fill-rule="evenodd" clip-rule="evenodd" d="M4.88372 9.11621H1.62791C0.729302 9.11621 0 9.99137 0 11.0697C0 12.148 0.729302 13.0232 1.62791 13.0232H4.88372C5.78233 13.0232 6.51163 12.148 6.51163 11.0697C6.51163 9.99137 5.78233 9.11621 4.88372 9.11621Z" fill="black"/>
<path id="Fill 3" fill-rule="evenodd" clip-rule="evenodd" d="M15.9535 13.0232H19.2093C20.1079 13.0232 20.8372 12.148 20.8372 11.0697C20.8372 9.99137 20.1079 9.11621 19.2093 9.11621H15.9535C15.0549 9.11621 14.3256 9.99137 14.3256 11.0697C14.3256 12.148 15.0549 13.0232 15.9535 13.0232Z" fill="black"/>
<path id="Fill 5" fill-rule="evenodd" clip-rule="evenodd" d="M13.0233 15.9536C13.0233 15.055 12.1481 14.3257 11.0698 14.3257C9.9915 14.3257 9.11633 15.055 9.11633 15.9536V19.2094C9.11633 20.108 9.9915 20.8373 11.0698 20.8373C12.1481 20.8373 13.0233 20.108 13.0233 19.2094V15.9536Z" fill="black"/>
<path id="Fill 7" fill-rule="evenodd" clip-rule="evenodd" d="M11.0698 6.51163C12.1481 6.51163 13.0233 5.78233 13.0233 4.88372V1.62791C13.0233 0.729302 12.1481 0 11.0698 0C9.9915 0 9.11633 0.729302 9.11633 1.62791V4.88372C9.11633 5.78233 9.9915 6.51163 11.0698 6.51163Z" fill="black"/>
<g id="Group 11">
<mask id="mask0_0_268" style="mask-type:alpha" maskUnits="userSpaceOnUse" x="13" y="9" width="43" height="47">
<path id="Clip 10" fill-rule="evenodd" clip-rule="evenodd" d="M13.0233 9.11621H56.0001V55.9999H13.0233V9.11621Z" fill="white"/>
</mask>
<g mask="url(#mask0_0_268)">
<path id="Fill 9" fill-rule="evenodd" clip-rule="evenodd" d="M37.5435 52.5271H19.5476C17.8259 52.497 16.4468 51.0638 16.4721 49.3019V45.5813H18.3408H38.9089L38.9112 46.1185C38.6951 47.7669 39.1893 49.376 40.2605 50.6286C39.7732 51.7214 38.7365 52.4923 37.5435 52.5271ZM28.6846 21.2712C31.0614 21.2712 32.9945 23.2184 32.9945 25.6123C32.9945 28.0063 31.0614 29.9534 28.6846 29.9534C26.3079 29.9534 24.3747 28.0063 24.3747 25.6123C24.3747 23.2184 26.3079 21.2712 28.6846 21.2712ZM55.498 44.4469C54.797 43.7384 54.4108 42.8007 54.4108 41.8052V36.7649C54.4108 34.2181 53.6339 31.7732 52.1627 29.7034L44.067 18.2637V15.8235C44.0877 12.1978 41.1776 9.18798 37.5435 9.11621H28.549C27.5974 9.11621 26.825 9.89413 26.825 10.8526C26.825 11.8112 27.5974 12.5891 28.549 12.5891H37.509C39.233 12.6238 40.6305 14.0662 40.6191 15.8142V32.5951C39.6123 32.5372 38.5871 32.785 37.7044 33.3777C37.4424 33.5513 37.1987 33.7551 36.9734 33.9773C35.1162 35.855 35.1162 38.9018 36.9482 40.7471L38.2354 42.1085H20.2372C21.0371 38.1494 24.5195 35.1627 28.6846 35.1627C29.6362 35.1627 30.4086 34.3848 30.4086 33.4263C30.4086 33.3568 30.3764 33.2966 30.3672 33.2295C33.8358 32.4493 36.4425 29.3376 36.4425 25.6123C36.4425 21.3037 32.9623 17.7984 28.6846 17.7984C24.4069 17.7984 20.9268 21.3037 20.9268 25.6123C20.9268 28.5157 22.5243 31.0254 24.8643 32.3729C20.6187 33.8129 17.4489 37.5335 16.7892 42.1085H16.472V28.217C16.472 27.2585 15.702 26.4806 14.7481 26.4806C13.7964 26.4806 13.0241 27.2585 13.0241 28.217V49.2765C12.9689 52.923 15.8698 55.9397 19.52 55.9999H37.5918C39.9272 55.9305 41.9821 54.6293 43.1085 52.6914L48.2574 55.7568C48.5332 55.9212 48.8343 55.9976 49.1332 55.9976C49.7239 55.9976 50.2986 55.692 50.6181 55.1456C51.1031 54.3191 50.8318 53.2541 50.0135 52.7678L43.3061 48.7787C42.589 48.2855 42.2143 47.4405 42.343 46.3454V42.1085C42.343 41.6639 42.1729 41.2333 41.8672 40.9092L39.4146 38.3207C38.8997 37.8021 38.8997 36.9524 39.4123 36.4338C39.4743 36.3713 39.5387 36.318 39.6123 36.2694C40.1363 35.9175 40.8374 35.9869 41.2834 36.4361L44.8715 40.0479C45.5473 40.7286 46.6368 40.7239 47.3103 40.0479C47.9838 39.3695 47.9838 38.2721 47.3103 37.5937L44.067 34.3292V24.244L49.3584 31.72C50.4089 33.1994 50.9629 34.9451 50.9629 36.7649V41.8052C50.9629 43.7268 51.7053 45.535 53.0546 46.8964C53.3925 47.239 53.8338 47.4081 54.2752 47.4081C54.7165 47.4081 55.1578 47.239 55.4934 46.901C56.1692 46.2227 56.1692 45.1252 55.498 44.4469Z" fill="black"/>
</g>
</g>
</g>
</g>
</svg>
