<svg width="80" height="80" viewBox="0 0 80 80" fill="none" xmlns="http://www.w3.org/2000/svg">
<circle cx="40" cy="40" r="40" fill="#E02B59"/>
<path fill-rule="evenodd" clip-rule="evenodd" d="M35.9379 37.8953C35.9379 37.8953 39.2587 35.9784 38.993 30.3594C38.7273 24.7405 33.1007 21.6216 28.6979 21.6216H15.1351V55.4601H28.6979C28.6979 55.4601 32.2612 55.7811 35.4527 53.8998C37.9321 52.4358 40.2345 49.2313 40.1902 46.1428C40.107 39.3219 35.9379 37.8953 35.9379 37.8953ZM28.6978 28.9632C28.6978 28.9632 31.2517 29.1112 31.2003 31.7432C31.2003 34.9744 28.6961 34.8496 28.6961 34.8496H22.8516V28.9649L28.6978 28.9632ZM22.8533 48.1168H28.6977V48.1186C28.7549 48.1186 28.8258 48.1212 28.908 48.1243C29.8735 48.1603 32.3957 48.2545 32.3957 44.8036C32.3514 41.2835 28.6977 41.7507 28.6977 41.7507H22.8533V48.1168Z" fill="white"/>
<path fill-rule="evenodd" clip-rule="evenodd" d="M52.6302 30.807C56.3495 30.4058 61.1313 30.807 64.6292 35.5771C68.127 40.3455 66.673 46.3193 66.673 46.3193H49.708C49.708 46.3193 50.2978 48.921 54.1941 49.5148C56.2933 49.8604 58.4339 49.2169 60.0014 47.7691L65.8246 51.134C60.9099 58.2223 51.5676 55.7704 51.5676 55.7704C49.3538 55.1463 46.5201 54.0318 43.9963 50.5099C41.4726 46.988 41.5983 41.1462 43.3322 37.4923C45.0661 33.8385 48.911 31.2082 52.6302 30.807ZM54.7041 37.1517C50.0693 37.1517 49.4937 40.9768 49.4937 40.9768H59.8703C59.8703 40.9768 59.1017 37.1517 54.7041 37.1517Z" fill="white"/>
</svg>
