<svg width="162" height="54" viewBox="0 0 162 54" fill="none" xmlns="http://www.w3.org/2000/svg">
<path d="M148.259 1.00017H13.7486C13.2583 1.00017 12.7739 1.00017 12.2849 1.00273C11.8755 1.00529 11.4694 1.01272 11.0562 1.01898C10.1583 1.0291 9.26261 1.10471 8.37678 1.24517C7.49221 1.38869 6.63534 1.65926 5.83516 2.04773C5.03596 2.43949 4.30571 2.94853 3.6709 3.55641C3.03276 4.16257 2.50082 4.86321 2.09553 5.6314C1.68913 6.39805 1.40733 7.21959 1.25986 8.06764C1.11099 8.91462 1.03088 9.77136 1.02026 10.6302C1.00785 11.0226 1.00654 11.4164 1 11.8089V41.395C1.00654 41.7925 1.00785 42.1775 1.02026 42.5751C1.03089 43.4339 1.111 44.2906 1.25986 45.1375C1.40692 45.986 1.68874 46.808 2.09553 47.575C2.50063 48.3407 3.03265 49.0385 3.6709 49.6413C4.30331 50.2519 5.03403 50.7613 5.83516 51.15C6.63533 51.5395 7.49211 51.8117 8.37678 51.9574C9.26276 52.0968 10.1584 52.1724 11.0562 52.1837C11.4694 52.1924 11.8755 52.1974 12.2849 52.1974C12.7739 52.2 13.2583 52.2 13.7486 52.2H148.259C148.739 52.2 149.227 52.2 149.708 52.1974C150.115 52.1974 150.533 52.1924 150.941 52.1837C151.837 52.173 152.731 52.0974 153.615 51.9574C154.502 51.8107 155.362 51.5386 156.166 51.15C156.967 50.761 157.697 50.2517 158.329 49.6413C158.965 49.0361 159.498 48.3388 159.908 47.575C160.312 46.8075 160.591 45.9855 160.736 45.1375C160.885 44.2904 160.968 43.4339 160.984 42.5751C160.99 42.1775 160.99 41.7925 160.99 41.395C161 40.93 161 40.4676 161 39.995V13.2064C161 12.7376 161 12.2726 160.99 11.8089C160.99 11.4164 160.99 11.0226 160.984 10.6301C160.968 9.77124 160.885 8.91468 160.736 8.06759C160.591 7.22003 160.312 6.39855 159.908 5.63134C159.083 4.09161 157.774 2.83827 156.166 2.04761C155.362 1.66009 154.502 1.38959 153.615 1.24506C152.731 1.10398 151.837 1.02834 150.941 1.0188C150.533 1.01256 150.115 1.00506 149.708 1.00256C149.227 1 148.739 1 148.259 1V1.00017Z" stroke="#574949" stroke-width="2"/>
<path fill-rule="evenodd" clip-rule="evenodd" d="M100.851 38.8772C98.6647 38.8772 97.0652 37.7961 96.8811 36.1496L94.3374 36.1494C94.4981 39.1527 96.9842 41.0525 100.666 41.0525C104.602 41.0525 107.075 39.107 107.075 36.0006C107.075 33.572 105.661 32.2035 102.254 31.3979L100.425 30.9487C98.2847 30.4199 97.4099 29.7292 97.4099 28.5553C97.4099 27.0825 98.7796 26.0705 100.781 26.0705C102.783 26.0705 104.153 27.0707 104.303 28.7277H106.811C106.73 25.8629 104.325 23.8951 100.815 23.8951C97.2715 23.8951 94.7749 25.8629 94.7749 28.7277C94.7749 31.0415 96.1904 32.4673 99.2393 33.2038L101.391 33.7221C103.543 34.251 104.452 35.0227 104.452 36.3114C104.452 37.7961 102.945 38.8772 100.851 38.8772ZM57.5607 36.288H51.2318L49.7119 40.7758H47.0312L53.0259 24.172H55.811L61.8057 40.7758H59.0793L57.5607 36.288ZM51.8873 34.2171H56.904L54.4309 26.9337H54.3617L51.8873 34.2171ZM69.7002 40.9025C72.7386 40.9025 74.7521 38.4855 74.7521 34.7237C74.7521 30.9723 72.7269 28.5436 69.6544 28.5436C68.0735 28.4927 66.5925 29.3149 65.7999 30.6837H65.7542V28.6703H63.349V44.7805H65.8338V38.7845H65.8913C66.6503 40.162 68.1296 40.9846 69.7002 40.9025ZM72.198 34.7237C72.198 32.2728 70.9315 30.6616 68.999 30.6616C67.1004 30.6616 65.8234 32.3068 65.8234 34.7237C65.8234 37.1628 67.1004 38.7963 68.999 38.7963C70.9315 38.7963 72.198 37.1968 72.198 34.7237H72.198ZM83.0239 40.9025C86.0624 40.9025 88.0765 38.4855 88.0765 34.7237C88.0765 30.9723 86.0506 28.5436 82.9782 28.5436C81.3972 28.4927 79.9163 29.3149 79.1236 30.6837H79.0779V28.6703H76.6728V44.7805H79.1576V38.7845H79.2151C79.974 40.162 81.4534 40.9846 83.0239 40.9025ZM85.5218 34.7237C85.5218 32.2728 84.2552 30.6616 82.3228 30.6616C80.4242 30.6616 79.1472 32.3068 79.1472 34.7237C79.1472 37.1628 80.4242 38.7963 82.3228 38.7963C84.2552 38.7963 85.5218 37.1968 85.5218 34.7237ZM112.44 25.8055V28.6703H114.742V30.638H112.44V37.3117C112.44 38.3484 112.901 38.8316 113.913 38.8316C114.186 38.8268 114.459 38.8076 114.731 38.7741V40.7301C114.276 40.8151 113.813 40.8536 113.35 40.845C110.899 40.845 109.944 39.9244 109.944 37.5767V30.638H108.184V28.6703H109.944V25.8055H112.44ZM121.815 28.5215C118.317 28.5215 116.074 30.9149 116.074 34.7237C116.074 38.543 118.295 40.926 121.815 40.926C125.337 40.926 127.558 38.543 127.558 34.7237C127.558 30.9148 125.325 28.5215 121.815 28.5215ZM125.026 34.7237C125.026 32.1109 123.829 30.5689 121.815 30.5689C119.802 30.5689 118.605 32.1227 118.605 34.7237C118.605 37.3469 119.802 38.8773 121.815 38.8773C123.829 38.8773 125.026 37.3469 125.026 34.7237ZM131.977 28.6703H129.607L129.607 40.7758H132.092V33.5955C132.009 32.8691 132.248 32.1428 132.746 31.6074C133.243 31.0719 133.95 30.7808 134.681 30.8104C135.059 30.7994 135.436 30.8501 135.797 30.9605V28.6363C135.518 28.5737 135.232 28.5426 134.946 28.5436C133.58 28.4915 132.365 29.4043 132.034 30.7307H131.977V28.6703ZM147.254 37.2203C146.92 39.4178 144.779 40.926 142.041 40.926C138.52 40.926 136.334 38.5665 136.334 34.7811C136.334 30.9841 138.532 28.5214 141.937 28.5214C145.286 28.5214 147.392 30.8221 147.392 34.4926V35.3439H138.842V35.4941C138.762 36.3953 139.074 37.2874 139.697 37.9434C140.32 38.5995 141.195 38.9562 142.099 38.9229C143.305 39.0359 144.442 38.3435 144.894 37.2203L147.254 37.2203ZM144.906 33.6073H138.854C138.852 32.79 139.176 32.0057 139.755 31.4288C140.334 30.8518 141.12 30.53 141.937 30.5349C142.748 30.5175 143.529 30.8391 144.093 31.4223C144.656 32.0056 144.951 32.7975 144.906 33.6073Z" fill="#574949"/>
<path fill-rule="evenodd" clip-rule="evenodd" d="M80.0128 11.2811H81.2011V19.6522H80.0128V11.2811ZM54.3918 12.7677C53.6646 11.9998 52.6313 11.5985 51.5765 11.6742H48.6947V19.6523H51.5765C53.9529 19.6523 55.3305 18.1872 55.3305 15.6384C55.4635 14.5892 55.119 13.5356 54.3918 12.7677ZM51.438 18.524H49.9338V12.8016H51.438C52.1879 12.76 52.9171 13.0557 53.4263 13.6078C53.9354 14.1599 54.1712 14.9106 54.0691 15.6546C54.1792 16.4018 53.9468 17.1588 53.4364 17.7154C52.926 18.272 52.1919 18.5691 51.438 18.524ZM56.7302 16.6392C56.627 15.56 57.1444 14.5156 58.0656 13.944C58.9868 13.3724 60.1523 13.3724 61.0735 13.944C61.9946 14.5156 62.5121 15.56 62.4089 16.6392C62.5141 17.7195 61.9971 18.766 61.0751 19.3388C60.1531 19.9117 58.9859 19.9117 58.064 19.3388C57.142 18.766 56.625 17.7195 56.7302 16.6392ZM59.5715 14.5709C60.6004 14.5709 61.1867 15.3341 61.1867 16.6392H61.1867C61.1867 17.9495 60.6004 18.712 59.5715 18.7121C58.5387 18.7121 57.9576 17.9547 57.9576 16.6392C57.9576 15.3341 58.5387 14.5709 59.5715 14.5709ZM69.9573 19.6522H68.7247L67.4804 15.2179H67.3864L66.1472 19.6522H64.9263L63.2667 13.6314H64.4719L65.5505 18.2256H65.6393L66.8771 13.6314H68.017L69.2549 18.2256H69.3489L70.4222 13.6314H71.6104L69.9573 19.6522ZM74.1501 13.6314H73.0063L73.0062 19.6522H74.1945V16.1299C74.1518 15.7293 74.2863 15.3299 74.5626 15.0367C74.839 14.7434 75.2296 14.5854 75.6321 14.6042C76.5109 14.6042 76.9313 15.0854 76.9313 16.0529V19.6521H78.1195V15.7545C78.2066 15.1658 78.0213 14.5695 77.6159 14.1339C77.2105 13.6982 76.629 13.4706 76.0356 13.5152C75.2692 13.4529 74.5476 13.8837 74.2389 14.5879H74.1501V13.6314ZM84.1884 13.9439C83.2672 14.5155 82.7497 15.5599 82.8528 16.6392C82.7477 17.7196 83.2648 18.766 84.1869 19.3388C85.1089 19.9116 86.2761 19.9116 87.1981 19.3388C88.1201 18.766 88.6372 17.7196 88.5321 16.6392C88.6353 15.5599 88.1177 14.5155 87.1965 13.9439C86.2753 13.3723 85.1097 13.3723 84.1884 13.9439ZM87.3093 16.6392C87.3093 15.3341 86.723 14.5709 85.6941 14.5709C84.6613 14.5709 84.0803 15.3341 84.0803 16.6392C84.0803 17.9547 84.6613 18.7121 85.6941 18.7121C86.723 18.712 87.3093 17.9495 87.3093 16.6392ZM92.0224 16.1521C90.59 16.2409 89.783 16.8657 89.783 17.9495C89.785 18.4634 90.0043 18.9524 90.3867 19.2957C90.7691 19.639 91.2788 19.8045 91.79 19.7514C92.5191 19.7851 93.2099 19.424 93.5984 18.8061H93.6924V19.6522H94.8362V15.5385C94.8362 14.2667 93.9849 13.5152 92.4755 13.5152C91.1097 13.5152 90.1369 14.1785 90.0155 15.2127H91.1658C91.2977 14.787 91.7573 14.5435 92.4206 14.5435C93.2328 14.5435 93.6532 14.9026 93.6532 15.5385V16.0581L92.0224 16.1521ZM93.6532 17.435V16.9317L92.183 17.0257C91.3538 17.0812 90.9778 17.3632 90.9778 17.894C90.9778 18.4359 91.4478 18.7512 92.0942 18.7512C92.4769 18.7899 92.8589 18.6717 93.1528 18.4236C93.4466 18.1755 93.6272 17.8188 93.6532 17.435ZM98.8971 13.5315C97.3759 13.5315 96.3979 14.7367 96.3979 16.6392C96.3979 18.5462 97.3655 19.7514 98.8971 19.7514C99.6736 19.78 100.402 19.3754 100.788 18.7009H100.882V19.6522H102.02V11.2811H100.832V14.5878H100.743C100.385 13.9077 99.6652 13.4961 98.8971 13.5315ZM97.6253 16.6392C97.6253 17.9162 98.2273 18.6846 99.234 18.6846C100.235 18.6846 100.854 17.9051 100.854 16.6444C100.854 15.3896 100.229 14.599 99.234 14.599C98.2338 14.599 97.6253 15.3726 97.6253 16.6392H97.6253ZM108.272 13.944C107.351 14.5156 106.833 15.56 106.937 16.6392C106.831 17.7195 107.348 18.766 108.27 19.3388C109.192 19.9117 110.359 19.9117 111.281 19.3388C112.203 18.766 112.72 17.7195 112.615 16.6392C112.718 15.56 112.201 14.5156 111.28 13.944C110.359 13.3724 109.193 13.3724 108.272 13.944ZM111.393 16.6392C111.393 15.3341 110.807 14.5709 109.778 14.5709C108.745 14.5709 108.164 15.3341 108.164 16.6392C108.164 17.9547 108.745 18.7121 109.778 18.7121C110.807 18.712 111.393 17.9495 111.393 16.6392ZM115.353 13.6314H114.209V19.6522H115.398V16.1299C115.355 15.7293 115.49 15.3299 115.766 15.0367C116.042 14.7434 116.433 14.5854 116.835 14.6042C117.714 14.6042 118.135 15.0854 118.135 16.0529V19.6521H119.323V15.7545C119.41 15.1658 119.225 14.5695 118.819 14.1339C118.414 13.6982 117.832 13.4706 117.239 13.5152C116.472 13.4529 115.751 13.8837 115.442 14.5879H115.353V13.6314ZM126.037 12.1324V13.6588H127.341V14.6597H126.037V17.7556C126.037 18.3863 126.297 18.6624 126.888 18.6624C127.04 18.6619 127.191 18.6528 127.341 18.635V19.6247C127.128 19.6629 126.912 19.6832 126.695 19.6855C125.374 19.6855 124.847 19.2206 124.847 18.0598V14.6596H123.892V13.6588H124.847V12.1324H126.037ZM130.142 11.2811H128.964L128.964 19.6521H130.153V16.1358C130.116 15.7226 130.263 15.3144 130.556 15.0201C130.848 14.7258 131.255 14.5755 131.669 14.6094C132.508 14.6094 132.956 15.0964 132.956 16.0581V19.6522H134.145V15.765C134.224 15.1793 134.038 14.5891 133.637 14.155C133.236 13.721 132.662 13.4883 132.072 13.5204C131.294 13.4573 130.56 13.8886 130.236 14.599H130.142V11.2811ZM141.074 18.0265C140.741 19.1622 139.642 19.896 138.465 19.7684C137.662 19.7896 136.89 19.4568 136.355 18.8584C135.819 18.2599 135.574 17.4563 135.684 16.6607C135.577 15.8629 135.821 15.058 136.354 14.4545C136.887 13.851 137.655 13.5083 138.46 13.5152C140.135 13.5152 141.146 14.6597 141.146 16.5504V16.965H136.894V17.0316C136.856 17.4783 137.009 17.9202 137.314 18.2486C137.62 18.577 138.049 18.7614 138.498 18.7564C139.079 18.8262 139.645 18.5378 139.93 18.0265L141.074 18.0265ZM139.935 16.0862H136.894C136.889 15.671 137.051 15.2713 137.345 14.9776C137.638 14.684 138.038 14.5213 138.453 14.5265C138.863 14.5171 139.257 14.6811 139.539 14.9782C139.822 15.2752 139.965 15.6776 139.935 16.0862Z" fill="#574949"/>
<path fill-rule="evenodd" clip-rule="evenodd" d="M32.1741 10.4921C32.3087 12.2499 31.7528 13.991 30.6244 15.3456C29.5297 16.7071 27.8709 17.4914 26.1239 17.4734C26.0128 15.7662 26.5849 14.0849 27.7142 12.7997C28.8578 11.4971 30.4502 10.6732 32.1741 10.4921ZM37.6991 20.8207C35.6895 22.0561 34.4529 24.235 34.4225 26.5938C34.4254 29.2625 36.0236 31.6709 38.4815 32.7105C38.0088 34.2461 37.2962 35.6973 36.3702 37.0104C35.1266 38.8706 33.8228 40.688 31.7533 40.7216C30.7691 40.7443 30.1047 40.4613 29.4124 40.1664C28.6903 39.8588 27.9378 39.5382 26.7603 39.5382C25.5115 39.5382 24.7253 39.8691 23.9671 40.1882C23.3119 40.464 22.6775 40.7309 21.7834 40.768C19.8126 40.841 18.3064 38.7826 17.0176 36.9398C14.4417 33.1764 12.4359 26.3341 15.1249 21.6784C16.3877 19.4093 18.7487 17.9694 21.3442 17.8855C22.462 17.8625 23.5346 18.2933 24.4749 18.6711C25.1941 18.9599 25.8359 19.2177 26.3615 19.2177C26.8235 19.2177 27.4475 18.9701 28.1746 18.6815C29.32 18.2269 30.7215 17.6707 32.1497 17.8206C34.369 17.89 36.4256 19.0019 37.6991 20.8207Z" fill="#574949"/>
</svg>
