<svg width="123" height="92" viewBox="0 0 123 92" fill="none" xmlns="http://www.w3.org/2000/svg">
<g id="For businesses">
<path id="Oval" fill-rule="evenodd" clip-rule="evenodd" d="M42.2617 19.2658C42.2617 8.62633 50.8743 1.52588e-05 61.5 1.52588e-05C72.1258 1.52588e-05 80.7384 8.62633 80.7384 19.2658C80.7384 29.9053 72.1258 38.5317 61.5 38.5317C50.8743 38.5317 42.2617 29.9053 42.2617 19.2658ZM76.7384 19.2658C76.7384 10.834 69.9152 4.00002 61.5 4.00002C53.0849 4.00002 46.2617 10.834 46.2617 19.2658C46.2617 27.6976 53.0849 34.5317 61.5 34.5317C69.9152 34.5317 76.7384 27.6976 76.7384 19.2658Z" fill="white"/>
<path id="Path" d="M62.0561 40.1013C66.2615 40.1013 71.7896 41.2729 76.1415 43.2251C81.6125 45.6792 85.039 49.1723 85.1823 53.6053L85.187 53.8957V75.519C85.187 76.6235 84.2915 77.519 83.187 77.519C82.1326 77.519 81.2688 76.7031 81.1925 75.6682L81.187 75.519V53.8957C81.187 51.5727 79.0959 49.357 75.9934 47.6224L75.4671 47.3379L74.9233 47.0626C74.8312 47.0175 74.7385 46.9728 74.6451 46.9286L74.0768 46.668C71.7735 45.6458 69.1139 44.8697 66.4181 44.4506L65.7435 44.3533C64.5062 44.1888 63.2668 44.1013 62.0561 44.1013C57.984 44.1013 53.5864 45.0921 50.0354 46.668L49.4672 46.9286C45.731 48.6993 43.0583 51.1282 42.9301 53.7024L42.9253 53.8957V75.519C42.9253 76.6235 42.0299 77.519 40.9253 77.519C39.8709 77.519 39.0071 76.7031 38.9308 75.6682L38.9253 75.519V53.8957C38.9253 49.3247 42.3808 45.7326 47.9708 43.2251C52.3227 41.2729 57.8508 40.1013 62.0561 40.1013Z" fill="white"/>
<path id="Path_2" d="M72.0654 53.4684C73.1198 53.4684 73.9836 54.2842 74.0599 55.3191L74.0654 55.4684V90C74.0654 91.1046 73.17 92 72.0654 92C71.0111 92 70.1473 91.1841 70.0709 90.1493L70.0654 90V55.4684C70.0654 54.3638 70.9609 53.4684 72.0654 53.4684Z" fill="white"/>
<path id="Path_3" d="M50.9346 53.4684C51.9889 53.4684 52.8527 54.2842 52.9291 55.3191L52.9346 55.4684V90C52.9346 91.1046 52.0391 92 50.9346 92C49.8802 92 49.0164 91.1841 48.9401 90.1493L48.9346 90V55.4684C48.9346 54.3638 49.83 53.4684 50.9346 53.4684Z" fill="white"/>
<path id="Path_4" d="M78.6379 3.09603C83.9716 -0.970057 91.3056 -1.03718 96.7111 2.93083C102.105 6.89022 104.316 13.94 102.17 20.3171C100.058 26.5947 94.2071 30.7855 87.7251 30.7346L87.3892 30.7282C85.8667 30.7271 84.3529 30.4974 82.8971 30.0467C81.842 29.7201 81.2514 28.5999 81.5781 27.5447C81.9047 26.4896 83.0249 25.899 84.0801 26.2257C85.0195 26.5165 85.9914 26.6825 87.0112 26.7206L87.4512 26.7291C92.3568 26.8776 96.7905 23.7637 98.3793 19.0415C99.971 14.3106 98.3311 9.082 94.3442 6.15533C90.3689 3.23727 84.9858 3.28654 81.063 6.27708C80.1846 6.94674 78.9296 6.77751 78.2599 5.89909C77.5903 5.02067 77.7595 3.7657 78.6379 3.09603Z" fill="white"/>
<path id="Path_5" d="M108.14 0.000116043C115.071 0.0741038 120.674 5.5371 120.774 12.2614L120.775 12.5633C120.841 19.4632 115.175 25.0894 108.12 25.1646C105.885 25.1659 103.69 24.5827 101.764 23.4745C100.806 22.9238 100.476 21.7012 101.027 20.7437C101.551 19.8318 102.685 19.4892 103.619 19.9343L103.758 20.007C105.076 20.7653 106.582 21.1655 108.097 21.1647C112.949 21.1129 116.82 17.2693 116.775 12.5633C116.82 7.89528 112.949 4.05168 108.116 4C105.964 3.99749 103.892 4.78483 102.319 6.20009C101.497 6.93865 100.233 6.87154 99.494 6.0502C98.7555 5.22886 98.8226 3.96431 99.6439 3.22575C101.956 1.14681 104.983 -0.00365306 108.14 0.000116043Z" fill="white"/>
<path id="Path_6" d="M107.323 26.7342C114.539 26.7342 122.762 30.4044 122.995 36.178L123 36.4304V49.8987C123 51.0033 122.105 51.8987 121 51.8987C119.946 51.8987 119.082 51.0829 119.006 50.048L119 49.8987V36.4304C119 35.134 117.686 33.8351 115.756 32.8056L115.299 32.5729C114.677 32.2694 114.002 31.9934 113.293 31.7527L112.756 31.579C111.037 31.0507 109.161 30.7333 107.398 30.7328C105.101 30.8191 102.859 31.4615 100.864 32.6051C99.9055 33.1543 98.6833 32.8228 98.134 31.8644C97.5848 30.9061 97.9164 29.684 98.8747 29.1347C101.431 27.6695 104.304 26.8463 107.323 26.7342Z" fill="white"/>
<path id="Path_7" d="M86.0956 33.4177C93.3936 33.4177 101.63 37.0908 101.864 42.8876L101.869 43.1409V64.3797C101.869 65.4843 100.974 66.3797 99.8691 66.3797C98.8148 66.3797 97.951 65.5639 97.8746 64.529L97.8691 64.3797V43.1409C97.8691 40.2757 91.5414 37.4177 86.1059 37.4177C82.2708 37.4374 78.5434 38.6566 75.4667 40.8963C74.5737 41.5464 73.3228 41.3494 72.6727 40.4564C72.0227 39.5634 72.2196 38.3124 73.1126 37.6624C76.8688 34.9281 81.4128 33.4418 86.0956 33.4177Z" fill="white"/>
<path id="Path_8" d="M29.5067 1.7001C34.6126 -0.929324 40.748 -0.482514 45.4243 2.85873C46.3231 3.50088 46.5311 4.75 45.8889 5.64874C45.2468 6.54747 43.9977 6.75548 43.0989 6.11334C39.6419 3.64326 35.1109 3.3133 31.338 5.25626C27.5602 7.20172 25.1667 11.1046 25.1307 15.3508C25.1844 21.6567 30.2696 26.7344 36.5154 26.7342C37.6579 26.7334 38.7941 26.562 39.8869 26.2256C40.9426 25.9007 42.0619 26.4931 42.3868 27.5488C42.7117 28.6045 42.1193 29.7237 41.0636 30.0486C39.5906 30.502 38.0588 30.7331 36.5169 30.7342C28.0675 30.7345 21.2032 23.8803 21.1309 15.351C21.1793 9.58781 24.4055 4.32704 29.5067 1.7001Z" fill="white"/>
<path id="Path_9" d="M14.8792 8.68952e-06C18.0174 -0.00364786 21.0441 1.14682 23.356 3.22576C24.1774 3.96433 24.2445 5.22888 23.5059 6.05022C22.7674 6.87155 21.5028 6.93865 20.6815 6.20009C19.1076 4.78483 17.0363 3.9975 14.8993 3.99993C12.5631 4.02069 10.3347 4.94351 8.70736 6.55952C7.09054 8.16509 6.19945 10.323 6.2249 12.605C6.19945 14.8416 7.09054 16.9995 8.70736 18.6051C10.3347 20.2211 12.5631 21.1439 14.8827 21.1646C16.2997 21.1654 17.692 20.8245 18.9348 20.1756L19.2423 20.007C20.1998 19.4564 21.4224 19.7862 21.9731 20.7437C22.5238 21.7012 22.194 22.9238 21.2365 23.4745C19.3096 24.5827 17.1148 25.1659 14.8637 25.1645C11.4879 25.1345 8.25963 23.7976 5.88883 21.4433C3.59256 19.1631 2.28301 16.1089 2.22629 12.9558L2.22515 12.605C2.18736 9.28293 3.50752 6.08597 5.88883 3.72123C8.25963 1.36694 11.4879 0.0300906 14.8792 8.68952e-06Z" fill="white"/>
<path id="Path_10" d="M15.7525 26.7356C18.6961 26.8462 21.569 27.6694 24.1254 29.1347C25.0837 29.684 25.4153 30.9061 24.866 31.8644C24.3168 32.8227 23.0946 33.1543 22.1363 32.6051C20.1411 31.4615 17.8992 30.8191 15.6774 30.7342C10.4081 30.7342 4.22125 33.4891 4.00579 36.2808L4 36.4304V49.8987C4 51.0033 3.10457 51.8987 2 51.8987C0.945638 51.8987 0.0818349 51.0829 0.00548574 50.048L0 49.8987V36.4304C0 30.5116 8.35645 26.7342 15.7525 26.7356Z" fill="white"/>
<path id="Path_11" d="M36.9147 33.4178C41.5872 33.4418 46.1312 34.9281 49.8874 37.6624C50.7804 38.3124 50.9773 39.5634 50.3273 40.4564C49.6772 41.3494 48.4263 41.5464 47.5332 40.8963C44.4566 38.6567 40.7291 37.4374 36.9044 37.4177C35.0891 37.4177 33.1759 37.7353 31.4316 38.2648L30.8868 38.4389L30.355 38.6264C27.4697 39.693 25.2639 41.332 25.1367 42.9902L25.1309 43.1409V64.3798C25.1309 65.4843 24.2354 66.3798 23.1309 66.3798C22.0765 66.3798 21.2127 65.5639 21.1363 64.529L21.1309 64.3798V43.1409C21.1309 37.198 29.5006 33.4177 36.9147 33.4178Z" fill="white"/>
<path id="Path_12" d="M62.3617 7.63117C61.587 7.7004 60.9786 8.34538 60.9786 9.13281L60.978 9.65402L60.8078 9.70086C58.3498 10.4255 56.631 12.6655 56.625 15.2404C56.625 18.0675 58.4459 19.6723 61.6754 20.8267L61.9729 20.9305C64.492 21.7874 65.3321 22.5279 65.3321 23.7587C65.3357 24.504 65.0356 25.2178 64.4993 25.7406C63.9621 26.2643 63.2332 26.5521 62.4777 26.5384C61.7244 26.5384 61.0088 26.2446 60.4828 25.7224C60.0053 25.2485 59.7197 24.6219 59.6742 23.96L59.6679 23.7605C59.6679 22.925 58.9857 22.251 58.1464 22.251C57.3072 22.251 56.625 22.925 56.625 23.7587L56.6312 23.9988C56.7459 26.468 58.4323 28.5849 60.8087 29.2851L60.978 29.331L60.9786 29.8672C60.9786 30.701 61.6607 31.375 62.5 31.375L62.6383 31.3689C63.413 31.2996 64.0214 30.6546 64.0214 29.8672L64.021 29.332L64.191 29.2871C66.6509 28.5723 68.3733 26.3333 68.375 23.759C68.375 20.8956 66.7216 19.3686 63.3298 18.1738L63.026 18.0692C60.6626 17.2736 59.8021 16.5335 59.7437 15.3721L59.7404 15.2413C59.6691 14.1866 60.185 13.2039 61.0787 12.6672C61.974 12.1295 63.0986 12.1295 63.9939 12.6672C64.8876 13.2039 65.4035 14.1866 65.333 15.2157C65.3321 16.075 66.0143 16.7491 66.8536 16.7491C67.6928 16.7491 68.375 16.075 68.375 15.2413L68.369 15.001C68.2555 12.5289 66.5703 10.4077 64.1924 9.70184L64.021 9.65402L64.0214 9.13281C64.0214 8.29907 63.3393 7.62502 62.5 7.62502L62.3617 7.63117Z" fill="white"/>
</g>
</svg>
