<svg width="105" height="102" viewBox="0 0 105 102" fill="none" xmlns="http://www.w3.org/2000/svg">
<path id="Government" fill-rule="evenodd" clip-rule="evenodd" d="M76 0C77.0544 0 77.9182 0.815878 77.9945 1.85074L78 2V14C78 15.0544 77.1841 15.9182 76.1493 15.9945L76 16H56V29.3478L67.763 42.1337C67.9423 42.0644 68.1341 42.0202 68.3341 42.0055L68.4834 42H103C104.054 42 104.918 42.8159 104.995 43.8507L105 44V56V100C105 101.054 104.184 101.918 103.149 101.995L103 102H2C0.945638 102 0.0818349 101.184 0.00548574 100.149L0 100V56V44C0 42.9456 0.815878 42.0818 1.85074 42.0055L2 42H39.6841C39.7968 42 39.9073 42.0093 40.0149 42.0272L52 29V2C52 0.945638 52.8159 0.0818349 53.8507 0.00548574L54 0H76ZM36.36 46H4V54H16.009H16.011H28.009H28.011H29L36.36 46ZM34.434 54H37.0718H69.6499H73.245L53.84 32.907L34.434 54ZM82.36 58H79.009L78.99 98H86.99L86.99 97.999L87.009 58H82.36ZM75.009 58H69.6499H37.0718H30.009L29.99 98H74.99L74.99 97.999L75.009 58ZM26.009 58H25.32H18.009L17.99 98H25.99L25.99 97.999L26.009 58ZM78.68 54L71.32 46H101V54H89.0109H89.009H78.68ZM74 4H56V12H74V4ZM91.009 58L90.99 98H101V58H91.009ZM14.009 58H4V98H13.99L13.99 97.999L14.009 58Z" fill="white"/>
</svg>
