<svg width="60" height="55" viewBox="0 0 60 55" fill="none" xmlns="http://www.w3.org/2000/svg">
<g id="Group">
<path id="Path" d="M60 27.0232C60 15.1294 53.0783 4.8525 43.0435 0V54.0463C53.0783 49.1939 60 38.917 60 27.0232Z" fill="#D80027"/>
<path id="Path_2" d="M0 27.0232C0 38.917 6.92168 49.1939 16.9566 54.0464V0C6.92168 4.8525 0 15.1294 0 27.0232Z" fill="#D80027"/>
<path id="Path_3" d="M35.2175 30.936L40.4348 28.3273L37.8262 27.023V24.4143L32.6087 27.023L35.2175 21.8056H32.6087L30 17.8926L27.3913 21.8056H24.7826L27.3913 27.023L22.1739 24.4143V27.023L19.5653 28.3273L24.7826 30.936L23.4783 33.5447H28.6957V37.4577H31.3043V33.5447H36.5218L35.2175 30.936Z" fill="#D80027"/>
</g>
</svg>
