<svg width="110" height="110" viewBox="0 0 110 110" fill="none" xmlns="http://www.w3.org/2000/svg">
<path d="M36.1782 9.81396C37.2129 9.81396 38.0518 10.6528 38.0518 11.6876V61.7402C38.0518 62.7279 37.2875 63.5371 36.318 63.6087L36.1782 63.6138L28.5984 63.6133L53.0408 97.4828L77.4823 63.6133L68.0298 63.6138C67.0421 63.6138 66.2329 62.8495 66.1613 61.88L66.1562 61.7402V45.0687C66.1562 44.034 66.995 43.1951 68.0298 43.1951C69.0646 43.1951 69.9034 44.034 69.9034 45.0687V59.866L81.1452 59.8666C82.6256 59.8666 83.5028 61.491 82.7432 62.7191L82.6645 62.8366L54.5601 101.781C53.8422 102.776 52.3915 102.816 51.6149 101.901L51.5215 101.781L23.4171 62.8366C22.5508 61.6362 23.3547 59.9743 24.7951 59.8716L24.9364 59.8666L34.3045 59.866V11.6876C34.3045 10.6528 35.1434 9.81396 36.1782 9.81396Z" fill="white"/>
<path fill-rule="evenodd" clip-rule="evenodd" d="M70.8398 31.3605C70.8398 26.704 74.6147 22.9292 79.2712 22.9292C83.9277 22.9292 87.7025 26.704 87.7025 31.3605C87.7025 36.017 83.9277 39.7918 79.2712 39.7918C74.6147 39.7918 70.8398 36.017 70.8398 31.3605ZM83.9553 31.3605C83.9553 28.7736 81.8582 26.6765 79.2713 26.6765C76.6843 26.6765 74.5872 28.7736 74.5872 31.3605C74.5872 33.9475 76.6843 36.0446 79.2713 36.0446C81.8582 36.0446 83.9553 33.9475 83.9553 31.3605Z" fill="white"/>
<path fill-rule="evenodd" clip-rule="evenodd" d="M59.3413 6.07072L59.5983 6.06665C64.147 6.06665 67.8716 9.67464 68.0256 14.2409L68.0296 14.498C68.0296 19.0467 64.4216 22.7712 59.8554 22.9252L59.5983 22.9293C55.0496 22.9293 51.3251 19.3213 51.1711 14.755L51.167 14.498C51.167 9.94927 54.775 6.22472 59.3413 6.07072ZM59.598 9.8139L59.4359 9.81664C56.9187 9.90167 54.914 11.9712 54.9137 14.4664L54.9167 14.6602C55.0017 17.1773 57.0713 19.182 59.5664 19.1823L59.7602 19.1793C62.2773 19.0943 64.2821 17.0247 64.2824 14.5296L64.2794 14.3358C64.1943 11.8187 62.1248 9.8139 59.598 9.8139Z" fill="white"/>
<path d="M81.6087 6.70651C82.2901 5.92776 83.4738 5.84885 84.2525 6.53025C84.9903 7.1758 85.0999 8.27214 84.5301 9.0479L84.4288 9.17409L58.198 39.1521C57.5166 39.9309 56.3329 40.0098 55.5542 39.3284C54.8164 38.6828 54.7068 37.5865 55.2766 36.8107L55.3779 36.6845L81.6087 6.70651Z" fill="white"/>
<path d="M82.6306 47.8351C83.3237 47.142 84.425 47.1055 85.1611 47.7257L85.2803 47.8351L89.5763 52.1306L93.8723 47.8351C94.5655 47.142 95.6667 47.1055 96.4029 47.7257L96.522 47.8351C97.2152 48.5283 97.2517 49.6295 96.6315 50.3657L96.522 50.4849L90.9011 56.1057C90.208 56.7989 89.1068 56.8354 88.3706 56.2152L88.2514 56.1057L82.6306 50.4849C81.8989 49.7532 81.8989 48.5668 82.6306 47.8351Z" fill="white"/>
<path d="M89.5763 41.6655C90.564 41.6655 91.3732 42.4299 91.4448 43.3993L91.4499 43.5392V54.7809C91.4499 55.8157 90.611 56.6545 89.5763 56.6545C88.5885 56.6545 87.7793 55.8902 87.7078 54.9207L87.7026 54.7809V43.5392C87.7026 42.5044 88.5415 41.6655 89.5763 41.6655Z" fill="white"/>
<path d="M12.3696 42.2143C13.0628 41.5211 14.164 41.4846 14.9001 42.1048L15.0193 42.2143L19.3153 46.5098L23.6113 42.2143C24.3045 41.5211 25.4057 41.4846 26.1419 42.1048L26.261 42.2143C26.9542 42.9075 26.9907 44.0087 26.3705 44.7448L26.261 44.864L20.6402 50.4849C19.947 51.1781 18.8458 51.2146 18.1096 50.5943L17.9905 50.4849L12.3696 44.864C11.6379 44.1323 11.6379 42.946 12.3696 42.2143Z" fill="white"/>
<path d="M19.3153 36.0447C20.303 36.0447 21.1122 36.809 21.1838 37.7785L21.1889 37.9183V49.1601C21.1889 50.1948 20.3501 51.0337 19.3153 51.0337C18.3275 51.0337 17.5183 50.2694 17.4468 49.2999L17.4417 49.1601V37.9183C17.4417 36.8835 18.2805 36.0447 19.3153 36.0447Z" fill="white"/>
</svg>
