<svg width="60" height="60" viewBox="0 0 60 60" fill="none" xmlns="http://www.w3.org/2000/svg">
<path d="M52.3586 50C57.1097 44.6923 60 37.6843 60 30C60 22.3158 57.1096 15.3077 52.3584 10L30 7.82617L7.64156 10C2.89043 15.3077 0 22.3158 0 30C0 37.6843 2.89031 44.6923 7.64145 50L30 52.1739L52.3586 50Z" fill="#FFDA44"/>
<path d="M7.6416 9.99996H52.3586C46.8654 3.8632 38.8844 0 30 0C21.1157 0 13.1346 3.8632 7.6416 9.99996Z" fill="black"/>
<path d="M0 30.0001L30 32.6088L60 30.0001C60 26.4934 59.3964 23.128 58.2905 20H1.70953C0.603633 23.128 0 26.4934 0 30.0001Z" fill="#D80027"/>
<path d="M1.70953 40H58.2907C59.3964 36.872 60 33.5067 60 30H0C0 33.5067 0.603633 36.872 1.70953 40Z" fill="black"/>
<path d="M52.3587 50H7.6416C13.1346 56.1369 21.1157 60.0001 30.0002 60.0001C38.8846 60.0001 46.8657 56.1369 52.3587 50Z" fill="#D80027"/>
<path d="M40.011 30.0001C40.011 35.5294 35.5294 40.011 30.0001 40.011C24.4709 40.011 19.9893 35.5294 19.9893 30.0001C19.9893 24.4709 24.4709 19.9893 30.0001 19.9893C35.5294 19.9893 40.011 24.4709 40.011 30.0001Z" fill="#F0F0F0"/>
<path d="M33.6671 30.5106L29.9998 28.9214C29.9998 28.9214 30.8578 26.0734 30.9035 25.8785C30.9369 25.7361 30.9547 25.5876 30.9547 25.4351C30.9547 24.8947 30.7357 24.4056 30.3816 24.0517L31.3038 23.1294C30.7138 22.5394 29.8985 22.1743 28.998 22.1743C28.0976 22.1743 27.2823 22.5392 26.6923 23.1294L27.6145 24.0517C27.2604 24.4057 27.0415 24.8948 27.0415 25.4351C27.0415 25.6326 27.0714 25.8231 27.1259 26.0029L25.7373 27.3914H28.2611C28.2611 27.3914 27.2176 28.9587 26.648 30.2457C26.0783 31.5327 26.6558 33.1038 27.9723 33.689L28.7336 34.0274L29.9998 35.2175V36.5218L28.6955 37.8261H31.3042V35.2174L32.4945 34.0271H34.9563C34.9682 34.0026 34.9806 33.9787 34.9918 33.9537C35.5767 32.6373 34.9838 31.0956 33.6671 30.5106Z" fill="black"/>
</svg>
